<?xml version="1.0" encoding="UTF-8"?>
<svg id="_レイヤー_2" data-name="レイヤー 2" xmlns="http://www.w3.org/2000/svg" viewBox="0 0 180 140">
  <defs>
    <style>
      .cls-1 {
        fill: #6eadea;
        fill-rule: evenodd;
      }
    </style>
  </defs>
  <g id="pc_top">
    <path class="cls-1" d="M17.17,68.97V8.31c0-2.29.93-4.37,2.42-5.87,1.49-1.51,3.56-2.44,5.83-2.44h146.33c2.27,0,4.33.93,5.83,2.44,1.49,1.51,2.42,3.58,2.42,5.87v108.86c0,2.29-.93,4.37-2.42,5.87-1.49,1.51-3.56,2.44-5.83,2.44h-102.75l-6.7,6.74c-.61.62-1.39.97-2.2,1.06-.8.09-1.64-.1-2.37-.58h0s-5.76-3.74-5.76-3.74h-.01s-.04,0-.06.01c-.52.25-1.05.49-1.56.71-.5.21-1.03.41-1.6.61-.02,0-.03.02-.04.03,0,0-.02.03-.02.05l-1.43,6.71c-.18.86-.64,1.58-1.28,2.1-.63.52-1.44.82-2.3.82h-10.14c-.86,0-1.66-.3-2.3-.82-.64-.52-1.1-1.25-1.28-2.1l-1.43-6.71s-.01-.04-.02-.05h-.01s-.02-.02-.03-.03c-.57-.2-1.1-.4-1.6-.61-.52-.22-1.04-.45-1.56-.71-.02-.01-.05-.02-.06-.02-.01,0-.03,0-.05.02h0s0,0,0,0l-5.72,3.72c-.72.47-1.56.66-2.37.57-.81-.09-1.59-.45-2.2-1.06l-7.17-7.22c-.61-.62-.97-1.4-1.05-2.22-.09-.81.1-1.65.57-2.38h0s3.72-5.8,3.72-5.8h0s0-.05-.02-.07c-.25-.53-.49-1.05-.7-1.57-.21-.5-.41-1.04-.61-1.61,0-.02-.02-.03-.03-.04h-.01s-6.69-1.46-6.69-1.46c-.85-.18-1.57-.65-2.09-1.29-.51-.64-.81-1.45-.81-2.31v-10.21c0-.87.3-1.68.81-2.32.51-.64,1.24-1.11,2.09-1.29l6.66-1.44s.05-.01.05-.01h0s0,0,0,0c.01,0,.02-.02.03-.04.2-.57.4-1.11.61-1.61.21-.52.45-1.04.7-1.57.01-.02.02-.05.02-.06,0,0,0-.02-.03-.05l-3.7-5.76c-.03-.05-.07-.11-.09-.17-.4-.69-.55-1.47-.47-2.22.09-.82.44-1.6,1.05-2.22l7.17-7.22s.09-.08.13-.12c.59-.54,1.32-.86,2.07-.94.03,0,.05,0,.08,0h0ZM70.51,121.9h101.24c1.29,0,2.46-.53,3.31-1.39.85-.86,1.38-2.04,1.38-3.34V29.2H20.73v41.17l4.49,2.92h.01s.04,0,.06-.01c.52-.25,1.05-.49,1.56-.71.5-.21,1.03-.41,1.6-.61.02,0,.03-.02.04-.03,0,0,.02-.03.02-.05l1.43-6.71c.18-.86.64-1.58,1.28-2.1.63-.52,1.44-.82,2.3-.82h10.14c.86,0,1.66.3,2.3.82.64.52,1.1,1.25,1.28,2.1l1.43,6.71s.01.04.02.05c0,.01.02.02.04.03.57.2,1.1.4,1.6.61.52.22,1.04.45,1.56.71.02.01.04.02.06.02.01,0,.03,0,.05-.02h0s0,0,0,0l5.72-3.72c.73-.47,1.56-.66,2.37-.57.81.09,1.58.44,2.2,1.06h0s0,0,0,0l7.17,7.22c.61.62.97,1.4,1.05,2.22.09.82-.1,1.66-.57,2.39l-3.7,5.76s-.03.04-.03.05c0,.01,0,.04.02.06.25.53.49,1.05.7,1.57.21.5.41,1.04.61,1.61,0,.02.02.03.03.04,0,0,.03.02.05.02l6.66,1.44c.85.18,1.57.65,2.09,1.29.51.64.81,1.45.81,2.32v10.21c0,.87-.3,1.68-.81,2.31-.51.64-1.24,1.11-2.09,1.29l-6.66,1.44s-.04.01-.05.02c-.01,0-.02.02-.03.04-.2.57-.4,1.11-.61,1.61-.21.52-.45,1.04-.7,1.57-.01.02-.02.05-.02.06,0,.01,0,.03.02.05h0s0,0,0,0l3.7,5.76c.03.05.07.11.09.17.24.42.39.87.46,1.33h0ZM135.85,42.39l-8.34,31.36c-.25.95.31,1.94,1.26,2.19.95.26,1.92-.31,2.18-1.27l8.34-31.36c.25-.95-.31-1.94-1.26-2.19-.95-.26-1.92.31-2.18,1.27h0ZM146,71.45l13.32-11.57c.74-.65.82-1.77.18-2.52-.06-.07-.13-.14-.2-.2l-13.3-11.55c-.74-.65-1.86-.56-2.5.18-.64.75-.56,1.87.18,2.52l11.76,10.22-11.76,10.22c-.74.65-.82,1.77-.18,2.52.64.75,1.76.83,2.5.18h0ZM123.11,68.75l-11.76-10.22,11.76-10.22c.74-.65.82-1.77.18-2.52-.64-.75-1.76-.83-2.5-.18l-13.3,11.55c-.07.06-.14.13-.2.2-.64.75-.56,1.87.18,2.52l13.32,11.57c.74.65,1.86.56,2.5-.18.64-.75.56-1.87-.18-2.52h0ZM38.6,81.29c-5.44,0-10.36,2.22-13.93,5.81-3.56,3.59-5.77,8.55-5.77,14.03s2.2,10.44,5.77,14.02c3.56,3.59,8.49,5.81,13.93,5.81s10.36-2.22,13.93-5.81c3.56-3.59,5.77-8.55,5.77-14.02s-2.2-10.44-5.77-14.03c-3.56-3.59-8.49-5.81-13.93-5.81h0ZM50.01,89.64c-2.92-2.94-6.95-4.76-11.41-4.76s-8.49,1.82-11.41,4.76c-2.92,2.94-4.73,7-4.73,11.49s1.81,8.55,4.73,11.49c2.92,2.94,6.95,4.76,11.41,4.76s8.49-1.82,11.41-4.76c2.92-2.94,4.73-7,4.73-11.49s-1.81-8.55-4.73-11.49h0ZM43.67,65.84h-10.14s-.06,0-.07.02c-.01.01-.02.03-.03.06l-1.43,6.71c-.14.64-.42,1.21-.83,1.67-.4.46-.93.82-1.55,1.03-.45.16-.92.34-1.4.54-.48.2-.94.41-1.38.62-.58.28-1.2.41-1.81.37-.55-.03-1.09-.2-1.6-.49-.06-.03-.11-.06-.16-.09l-5.72-3.72h0s0,0,0,0c-.02-.01-.05-.02-.07-.02-.01,0-.02,0-.04.01l-7.19,7.25s-.04.05-.04.06c0,.01,0,.03,0,.04l3.72,5.8c.35.54.54,1.15.58,1.77.04.62-.08,1.24-.36,1.82-.21.44-.42.91-.62,1.39-.2.49-.38.96-.54,1.41-.22.62-.57,1.15-1.03,1.56h0c-.47.41-1.03.7-1.66.83l-6.66,1.44s-.05.02-.06.03c-.01.01-.02.04-.02.07v10.21s0,.06.02.07c.01.01.03.02.06.03l6.66,1.44c.56.12,1.07.37,1.51.71.05.04.1.08.15.12.46.41.81.93,1.03,1.56.16.45.34.92.54,1.41.2.48.4.95.62,1.39.28.59.4,1.21.36,1.82-.03.56-.2,1.1-.49,1.61-.03.06-.06.11-.09.16l-3.7,5.76h0s0,0,0,0c-.01.02-.02.05-.02.08,0,.02.01.04.04.06l7.17,7.22s.05.04.06.04c.02,0,.05,0,.07-.02l5.72-3.72h0c.55-.35,1.15-.55,1.76-.59.61-.04,1.23.08,1.81.37.44.21.9.42,1.38.62.49.2.96.39,1.4.54.55.19,1.02.5,1.41.9.05.04.09.09.13.14.41.46.69,1.03.83,1.67l1.43,6.71s.02.05.03.06c.01.01.04.02.07.02h10.14s.06,0,.07-.02c.01-.01.02-.03.03-.06l1.43-6.71c.14-.64.42-1.21.83-1.67.4-.46.93-.82,1.55-1.03.45-.16.92-.34,1.4-.54.48-.2.94-.41,1.38-.62.58-.28,1.2-.4,1.81-.37.55.03,1.09.2,1.6.49.06.03.11.06.16.09l5.72,3.72h0s0,0,0,0c.02.01.05.02.07.02.02,0,.04-.01.06-.04l7.17-7.22s.04-.05.04-.06c0-.01,0-.03,0-.04l-3.72-5.8h0c-.35-.55-.55-1.16-.59-1.77-.04-.62.08-1.24.36-1.82.21-.44.42-.91.62-1.39.2-.49.38-.96.54-1.41.22-.62.57-1.15,1.03-1.56.46-.41,1.02-.69,1.66-.83l6.66-1.44s.05-.02.06-.03c.01-.01.02-.04.02-.07v-10.21s0-.06-.02-.07c-.01-.01-.03-.02-.06-.03l-6.66-1.44c-.64-.14-1.2-.42-1.66-.83-.46-.41-.81-.94-1.03-1.56-.16-.45-.34-.92-.54-1.41-.2-.48-.4-.95-.62-1.39-.28-.59-.4-1.21-.36-1.82.04-.62.23-1.23.58-1.77l3.7-5.76s.03-.06.02-.08c0-.02-.01-.04-.04-.06l-7.17-7.22h0s-.04-.04-.07-.04c-.02,0-.05,0-.07.02l-5.72,3.72h0c-.55.35-1.15.55-1.76.59-.61.04-1.23-.08-1.81-.37-.44-.21-.9-.42-1.38-.62-.49-.2-.96-.39-1.4-.54-.62-.22-1.14-.57-1.55-1.03-.41-.46-.69-1.03-.83-1.67l-1.43-6.71s-.02-.05-.03-.06c-.01-.01-.04-.02-.07-.02h0ZM69.52,16.39h0c.98,0,1.78-.8,1.78-1.79s-.8-1.79-1.78-1.79h0c-.98,0-1.78.8-1.78,1.79s.8,1.79,1.78,1.79h0ZM54.9,16.39h0c.98,0,1.78-.8,1.78-1.79s-.8-1.79-1.78-1.79h0c-.98,0-1.78.8-1.78,1.79s.8,1.79,1.78,1.79h0ZM40.27,16.39h0c.98,0,1.78-.8,1.78-1.79s-.8-1.79-1.78-1.79h0c-.98,0-1.78.8-1.78,1.79s.8,1.79,1.78,1.79h0ZM90.45,108.25h67.71c.98,0,1.78-.8,1.78-1.79s-.8-1.79-1.78-1.79h-67.71c-.98,0-1.78.8-1.78,1.79s.8,1.79,1.78,1.79h0ZM86.94,87.42h71.22c.98,0,1.78-.8,1.78-1.79s-.8-1.79-1.78-1.79h-71.22c-.98,0-1.78.8-1.78,1.79s.8,1.79,1.78,1.79h0ZM69.99,66.58h19.39c.98,0,1.78-.8,1.78-1.79s-.8-1.79-1.78-1.79h-19.39c-.98,0-1.78.8-1.78,1.79s.8,1.79,1.78,1.79h0ZM39.01,45.75h50.37c.98,0,1.78-.8,1.78-1.79s-.8-1.79-1.78-1.79h-50.37c-.98,0-1.78.8-1.78,1.79s.8,1.79,1.78,1.79h0ZM176.44,25.61V8.31c0-1.3-.53-2.48-1.38-3.34-.85-.86-2.02-1.39-3.31-1.39H25.42c-1.29,0-2.46.53-3.31,1.39-.85.86-1.38,2.04-1.38,3.34v17.3h155.71Z"/>
  </g>
</svg>