<?xml version="1.0" encoding="UTF-8"?>
<svg id="_レイヤー_2" data-name="レイヤー 2" xmlns="http://www.w3.org/2000/svg" viewBox="0 0 144 126">
  <defs>
    <style>
      .cls-1 {
        fill: #6eadea;
      }
    </style>
  </defs>
  <g id="pc_top">
    <g>
      <g>
        <g>
          <path class="cls-1" d="M104.79,89.81c-1.83,0-3.76-.54-5.5-1.67l-17.82-11.56c-4.2-2.72-5.7-7.82-3.36-11.37l31.6-47.9c1.02-1.55,2.57-2.67,4.47-3.22l20.57-6c1.36-.4,2.88-.14,4.17.69,1.29.84,2.13,2.12,2.31,3.51l2.69,21.1c.25,1.95-.16,3.8-1.18,5.36l-31.6,47.9c-1.37,2.08-3.77,3.17-6.36,3.17ZM136.05,10.99c-.14,0-.28.02-.41.06l-20.57,6c-1.18.35-2.13,1.02-2.74,1.95l-31.6,47.9c-1.4,2.12-.29,5.3,2.46,7.08l17.82,11.56c2.75,1.79,6.13,1.52,7.53-.6l31.6-47.9c.61-.93.85-2.06.7-3.27h0s-2.69-21.1-2.69-21.1c-.06-.49-.41-.97-.92-1.31-.37-.24-.79-.37-1.16-.37Z"/>
          <path class="cls-1" d="M114.16,80.79c-.29,0-.59-.08-.85-.25l-30.42-19.74c-.72-.47-.92-1.43-.45-2.14.47-.72,1.44-.92,2.16-.45l30.42,19.74c.72.47.92,1.43.45,2.14-.3.45-.8.7-1.31.7Z"/>
          <path class="cls-1" d="M142.31,37.3c-.29,0-.59-.08-.85-.25l-29.68-19.26c-.72-.47-.92-1.43-.45-2.14.47-.72,1.44-.92,2.16-.45l29.68,19.26c.72.47.92,1.43.45,2.14-.3.45-.8.7-1.31.7Z"/>
        </g>
        <g>
          <path class="cls-1" d="M28.45,121.32h-6.72c-11.99,0-21.74-9.67-21.74-21.56v-26.52c0-13.54,11.11-24.56,24.76-24.56h.67c13.65,0,24.76,11.02,24.76,24.56v26.52c0,11.89-9.75,21.56-21.74,21.56ZM24.76,51.78c-11.93,0-21.64,9.63-21.64,21.46v26.52c0,10.18,8.35,18.46,18.62,18.46h6.72c10.26,0,18.62-8.28,18.62-18.46v-26.52c0-11.83-9.71-21.46-21.64-21.46h-.67Z"/>
          <path class="cls-1" d="M25.1,74.29c-.86,0-1.56-.69-1.56-1.55v-8.97c0-.86.7-1.55,1.56-1.55s1.56.69,1.56,1.55v8.97c0,.86-.7,1.55-1.56,1.55Z"/>
        </g>
        <path class="cls-1" d="M78.56,51.12c-.86,0-1.56-.69-1.56-1.55v-21.51c0-13.77-11.29-24.96-25.17-24.96s-25.17,11.2-25.17,24.96v11.86c0,.86-.7,1.55-1.56,1.55s-1.56-.69-1.56-1.55v-11.86C23.54,12.59,36.23,0,51.83,0s28.29,12.59,28.29,28.06v21.51c0,.86-.7,1.55-1.56,1.55Z"/>
      </g>
      <g>
        <path class="cls-1" d="M80.17,105.95c-.86,0-1.56-.69-1.56-1.55v-9.71c0-.86.7-1.55,1.56-1.55s1.56.69,1.56,1.55v9.71c0,.86-.7,1.55-1.56,1.55Z"/>
        <path class="cls-1" d="M80.17,126c-.86,0-1.56-.69-1.56-1.55v-9.71c0-.86.7-1.55,1.56-1.55s1.56.69,1.56,1.55v9.71c0,.86-.7,1.55-1.56,1.55Z"/>
        <path class="cls-1" d="M95.17,111.12h-9.79c-.86,0-1.56-.69-1.56-1.55s.7-1.55,1.56-1.55h9.79c.86,0,1.56.69,1.56,1.55s-.7,1.55-1.56,1.55Z"/>
        <path class="cls-1" d="M74.95,111.12h-9.79c-.86,0-1.56-.69-1.56-1.55s.7-1.55,1.56-1.55h9.79c.86,0,1.56.69,1.56,1.55s-.7,1.55-1.56,1.55Z"/>
      </g>
    </g>
  </g>
</svg>