<?xml version="1.0" encoding="UTF-8"?>
<svg id="_レイヤー_2" data-name="レイヤー 2" xmlns="http://www.w3.org/2000/svg" viewBox="0 0 162.96 168.25">
  <defs>
    <style>
      .cls-1 {
        fill: #2946a4;
      }

      .cls-2 {
        fill: #103099;
      }
    </style>
  </defs>
  <g id="pc_top">
    <g>
      <g>
        <g>
          <g>
            <path class="cls-1" d="M44.35,39.32c.65.47,1.22.27,1.95.26.37-.5.5.75.92.02.42.09,1.18-.02,1.36.7.9.65,1.21,1.58,1.66,2.39.3.03.21.24.07.43.5.56.67,1.34.78,2.05.3.51.47,1.12.57,1.78.1.64.15,1.26.38,1.83-.11.27-.44.55.1.71.05.35-.27.82.16,1.05-.42.5.36.82.23,1.23-.36.19-.2.38-.07.49.3.05.24.16.17.32.46.3-.12,1.02.5,1.24.17.9.65,1.6,1.08,2.38-.26.37.21.43.31.65.22.8.56,1.53.92,2.37.44.23-.1.77.19,1.05.09.71.81,1.42.32,2.2,1.01.24-.57,1.02.55,1.18-.31.47.28.72.42,1-.29.27-.09.45.08.54.27-.05.29.12.25.26-.23.55.83.17.39.94l.43.06c.39.61,1.04,1.02,1.57,1.48.31-.14.39.12.34.4.4.04.46.59,1.01.45,0,.75.38,1.04.81,1.38.41.32.85.65.84,1.26.36.4.33.93.99,1.11-.02.44.26.83.58,1.02.41.8.94,1.47,1.52,2.1.4-.17.31.15.34.36.46.09.48.71.93.76.4.59,1.09,1.07,1.5,1.71.74-.41.13.56.7.41.26.12.32.62.83.49,0,.65.38,1,.78,1.37.39.37.8.76.77,1.32.35.7,1.11,1.24,1.03,2.16.47.14.13.81.76.82-.03.43.43.43.5.83.13.46.89.24.95.75.97.77,2.09,1.66,3.08,2.45-.24.52.52.09.36.53.6.31.78,1.1,1.28,1.51.61-.15.05.69.66.54.11.9,1.02,1.1,1.48,1.72-.35.66.62.15.36.75-.02.28.53-.06.42.32.86.48.88,1.59,1.71,2.03.2.61.7.99.86,1.56.55.34.63,1.06,1.19,1.47.66.53,1.47,1.06,2.04,1.87.43.07.57.57,1.1.57.33.61.87.95,1.28,1.48.22-.06.33.08.31.24l-.1.16c.33.46.99.68.78,1.4.87.37.63,1.28,1.11,1.84.33.16.22.61.42.83.22.11-.04.58.42.52.55.17.49,1.18,1.17,1.28.16.54.67.84,1.13,1.08-.08.57.81-.07.78.52.27.43.67.71,1.06,1.04.38.32.76.73.83,1.28.26.3.52.61.74.94-.47.37.01.41.07.62.49.63.31,1.46.59,2.1-.21.34.31.47.1.84.39.42.43.96.48,1.5.22.29.08.83.56,1.08-.38.47.21.64.33.95.18.41.02,1.01.55,1.25-.01.64.62,1.09.52,1.79.58,1.07.59,2.2.72,3.41-.33.27.23.68-.24.95.8.42-.6.56.06.98-.83.21.35.68-.21.9-.39.72.3,1.42-.22,2.1.19.44-.02.94.33,1.39-.24.25-.14.47,0,.71.17.76-.05,1.54.11,2.28.28.12.22.36.13.54-.15.75-.04,1.38.05,2.08-.46.7.53,1.45-.18,2.14.51.3-.43.65.24.92-.27.99-.18,1.83-.08,2.83.15.25.04.52.01.79-.14.3-.02.73,0,1.04.36.28-.17.79.33,1.06-.19.75.22,1.59.34,2.34.41.14.11.47.16.7l.33,1.61c.5.07-.12.35.02.51.37.35.19.84.37,1.22-.49.52.61.63.19,1.12.36.68.41,1.48.7,2.2.57.8.3,1.91.93,2.72-.49.77.48,1.31.37,2.03.03.48-.05,1.08.5,1.38-.28.74.21,1.29.36,1.91-.07.11-.27.17-.45.24-1.32.14-.3-.79-1.15-.95.63-.81-.56-1.19-.25-1.9-.04-.75-.59-1.57-.5-2.3-.39-.05-.07-.29-.1-.43-.35-.47.08-1.16-.53-1.55.21-1.31-1.09-2.3-.83-3.61-.78.03-.08-.39-.23-.56-.05-.49.06-1-.47-1.35.32-.38.07-.78-.3-1.02.5-.65-.37-.98,0-1.63-.39-.29.09-.87-.44-1.16-.2-.78-.38-1.57-.51-2.39.23-.28.12-.49-.01-.75-.06-.47.41-.98-.12-1.38.55-1.23,0-2.36.17-3.56-.25-.44.13-.96,0-1.41.18-.19.16-.35-.09-.54.05-.68.3-1.26-.18-1.9.18-.27.71-.63.11-.85l.1-.9c-.3-.2.16-.55-.25-.76-.07-.93-.13-1.87-.14-2.84,0-1.01.17-1.97.32-2.9.14-.93.27-1.85.21-2.74-.05-.88-.32-1.73-.7-2.52.1-.66-.66-.98-.51-1.72l-.25-.12-.36-1.25c-.49-.33-.53-.98-.76-1.43-.14-.98-.54-1.9-.57-2.85.18-.46-.82-.6-.36-1.09-.28-.67-.41-1.33-.66-1.96-.24-.63-.65-1.16-1.33-1.43.05-.49-.53-.4-.67-.71.07-.82-1.04-.29-1.05-1.1-.23-.35-.89-.42-1.03-.9-.5-.2-.77-.77-1.27-1.13-.37-.77-.78-1.72-1.29-2.43.16-.61-.43-.77-.53-1.23-.38-.8-.94-1.49-1.6-2.05-.66-.58-1.41-1.1-2.04-1.77.09-.29-.12-.35-.3-.35-.43.11-.5-.32-.59-.62-.21-.04-.39-.09-.32-.42-.56-.02-.71-.47-1.1-.67-.37-.33-.47-.89-.84-1.26.43-.53-.65.05-.22-.48-.5,0-.28-.55-.57-.7-.45-.67-.9-1.34-1.4-1.93l.04-.22c-.81-.75-1.63-1.42-2.33-2.34-.47-.06-.17-.64-.72-.61-.13-.52-.73-.71-.79-1.32-.77-.22-.52-1.43-1.51-1.35-.45-.4-1.03-.85-1.52-1.23.11-.43-.35-.21-.4-.43-1.03-.65-1.97-1.55-2.6-2.66-.63-1.07-1.05-2.19-1.74-3.11-.2-.65-.69-1.18-1.06-1.77-.33.06-.44-.19-.51-.4-.22-.29-.41-.84-.95-.78-.16-.7-.93-.76-1.31-1.3-.49.35-.18-.24-.33-.31-.76-.51-1.12-1.53-1.97-1.95-.42-.84-1.13-1.66-1.69-2.32.23-.44-.27-.43-.2-.79,0-.36-.68-.34-.51-.8-.75.18-.03-.66-.68-.56l.03-.23c-.42-.23-.56-.67-.74-1.12-.51.28-.41-.13-.56-.29-.37-.5-.97-.71-1.32-1.23-.76-.46-1.39-1.08-1.96-1.84-.06-.42-.33-.7-.59-1.03-.26-.32-.5-.69-.41-1.11-.2-.63-.35-1.39-.46-2.01-.16-.29-.3-.56-.07-.9-.13-.4-.27-.78-.42-1.15.21-.34-.14-.52-.15-.8-.24-.28-.39-.64-.44-1.05-.51-.58-.56-1.38-.88-2.07-.44-.19-.1-.86-.67-1.02.3-.62-.66-.72-.44-1.29-.35-.24.28-.78-.3-.95-.11-.42-.05-.91-.55-1.24.32-.73-.08-1.39-.08-2.01.14-.53-.59-.98-.14-1.51-.38-.37-.06-.84-.42-1.21.32-.36-.15-.52-.23-.8-.54-.41.02-1.16-.26-1.66-.72-.34-.39-1.2-.79-1.69-.12-.58-.47-1.13-.86-1.47-.39-.34-.79-.46-1.32-.77-.55.63-.95-.39-1.53.04-.42.03-.88-.15-1.33-.24-.2-.36.05-.99.2-1.09Z"/>
            <path class="cls-2" d="M107.85,166.54c.12.29-.02.62-.31.74-.29.12-.62-.02-.74-.31-.12-.29.02-.62.31-.74.29-.12.62.02.74.31Z"/>
            <path class="cls-2" d="M44.19,39.42c-.31-.01-.57.23-.59.54-.01.31.23.57.54.59.31.01.57-.23.59-.54.01-.31-.23-.57-.54-.59Z"/>
          </g>
          <g>
            <path class="cls-1" d="M61.56,167.55c.37-.9.12-1.62,0-2.52-.55-.35.67-.78-.15-1.11,0-.56-.39-1.11.06-1.69-.1-1.14-.22-2.25-.59-3.34-.3-.1-.19-.31-.05-.53-.5-.75-.74-1.7-.97-2.58-.79-1.26-1.11-2.97-2.07-4.12-.03-.34.12-.79-.47-.74-.25-.36-.26-1.02-.8-1.08.05-.74-.88-.74-1.04-1.25.2-.36-.07-.51-.27-.58-.31.07-.34-.09-.37-.29-.66-.19-.52-1.25-1.23-1.26-.69-.92-1.66-1.46-2.59-2.13.01-.49-.49-.39-.74-.59-.73-.78-1.49-1.55-2.32-2.25-.55-.03-.41-.83-.89-.96-.6-.67-1.79-.96-2-2.02-1.07.28-.29-1.33-1.43-.95-.08-.64-.82-.65-1.17-.94.11-.4-.2-.53-.44-.6-.26.12-.4-.09-.43-.26-.01-.65-1.12-.22-.86-1.12l-.53-.11c-.61-.76-1.42-1.33-2.05-2.04-.35.07-.45-.26-.39-.55-.45-.16-.51-.81-1.12-.78,0-1.68-1.83-1.71-2.25-2.99-.54-.36-.81-.94-1.59-.94-.23-.47-.75-.81-1.21-.92-.91-.74-1.89-1.32-2.84-2.03-.41.21-.44-.17-.54-.42-.59-.13-.75-.86-1.28-.99-.57-.75-1.38-1.46-1.89-2.29-.82.3-.18-.66-.81-.61-.29-.18-.42-.76-.97-.66-.16-1.47-2.05-1.52-2.54-2.77-.69-.69-1.85-1.23-2.06-2.44-.59-.26-.28-1.01-.96-1.29.06-.55-.4-.86-.28-1.4.11-.58-.63-1.07-.33-1.64-.16-1.57-.12-3.45-.7-4.82.44-.41-.45-.32-.16-.71-.52-.6-.61-1.55-1.12-2.22-.67-.05.02-.83-.65-.9,0-.57-.22-1.01-.47-1.47-.24-.46-.5-.97-.56-1.48.63-.46-.48-.64.06-1.09.17-.29-.48-.35-.18-.64-.47-1.06,0-2.27-.6-3.25.05-.8-.3-1.48-.31-2.23-.45-.68-.34-1.56-.77-2.38-.48-1.03-1.04-2.22-1.13-3.5-.35-.43-.19-1.03-.62-1.49.08-.88-.07-1.7.03-2.55-.2-.14-.17-.36-.04-.48l.19-.06c.06-.36-.01-.68-.06-.96-.04-.28-.07-.52.12-.88-.4-.33-.53-.68-.69-1.09-.13-.41-.27-.83-.6-1.1-.37-.11-.44-.58-.78-.72-.28,0-.35-.57-.8-.33-.44,0-.82-.33-1.13-.67-.32-.35-.57-.7-.98-.85-.26-.69-.79-1.18-1.3-1.62.12-.62-.92-.21-.84-.86-.27-.57-.71-1-1.15-1.42-.22-.21-.43-.42-.62-.63-.23-.26-.42-.57-.49-.92-.33-.42-.61-.91-.76-1.45.56-.29.08-.55.12-.84-.21-1.08.52-1.98.87-2.83.43-.18.23-.72.73-.9.22-.71.88-1.21,1.53-1.56.33-.41,1.03-.48,1.37-1.04.59.28.87-.35,1.34-.48.62-.2,1.31.08,1.88-.33.8.22,1.74-.07,2.47.47.41.04.82.25,1.08.33.07.03.13.04.16.04.04.01-.01-.03-.15.06-.12.1-.1.18-.08.05l.06-.23c.15-.63.2-1.29.12-2.02.33-.34-.25-.81.19-1.19-.83-.44.55-.78-.13-1.27.82-.32-.34-.92.29-1.26.54-.89.28-2.05,1.24-2.65.14-.61.68-1.04.69-1.72.37-.13.43-.43.46-.75.29-.86.79-1.69.87-2.64-.23-.23-.11-.5.03-.68.35-.89.35-1.68.48-2.62.33-.4.34-.9.44-1.41.09-.5.26-.99.8-1.22-.24-.61.8-.51.43-1.17.92-.94,1.52-1.83,1.82-3.01-.04-.35.2-.64.36-.97.29-.31.39-.88.54-1.27-.16-.52.59-.85.32-1.43.31-.4.48-.88.73-1.42.06-.13.14-.29.25-.44.1-.12.18-.24.31-.36.21-.23.54-.45.9-.51.17-.23.45-.23.61-.17.17.06.29.17.36.16.21.07.64-.7.96-1.26-.31-.41.36-.26.37-.52-.02-.6.45-.98.56-1.52.74-.24-.06-1.09.64-1.34.13-.49.38-1,.81-1.43.43-.44,1.03-.7,1.59-.84.68-.28,1.39-.17,2.02,0,.64.18,1.23.4,1.91.46.27.48.68.65,1.14.85.44.18.98.44,1.19.94.39.62.5,1.4,1.12,1.82-.14.99.34,1.77.43,2.64-.08.12-.3.14-.49.18-1.34-.16-.22-1.05-1.1-1.38.32-.46.15-.83-.08-1.16-.23-.33-.51-.59-.49-1-.31-.85-1.41-1.15-2.06-1.74-.3.26-.32-.15-.49-.21-.66-.02-1.24-.77-1.95-.36-.67-.35-1.48-.13-1.88.35-.41.48-.59,1.17-1.14,1.77.63.46-.2.46-.2.75-.3.57-.73,1.04-.6,1.77-.53.19-.65.76-.62,1.28-.46.12-.58.51-1.05.85-.24.16-.57.23-.79.21-.23-.02-.36-.09-.48-.2-.15.17-.23.13-.44.22-.17.08-.42.3-.28.54-.35.78-.63,1.85-.95,2.81-.35.2-.36.51-.37.85-.18.56-.84.98-.54,1.67-1.11,1.37-1.65,2.71-2.51,3.95-.05.58-.67.99-.74,1.55-.25.16-.29.36-.11.64-.27.77-.61,1.5-.31,2.42-.25.31-.86.64-.35,1.09-.13.38-.27.75-.42,1.12.2.37-.38.62-.12,1.05-.44,1.24-1.15,2.26-1.76,3.29-.61,1.03-1.15,2.07-1.29,3.2-.15,1.15-.07,2.37-.14,3.62-.02.31-.05.63-.09.94-.03.16-.05.32-.08.47l-.05.24c0,.07-.1.36-.34.48-.49.21-.67.04-.86.02-.18-.06-.32-.12-.46-.17-.14-.05-.26-.1-.36-.12l-.4-.07c-.66-.49-1.4,0-2.14-.38-.08.06-.16.13-.23.2-.51,0-1.02.07-1.53.19-.44.49-1.15.63-1.62,1.03-1.07.48-1.8,1.45-2.52,2.3-.24.14-.22.44-.19.7.01.26.05.48-.3.6-.15.85-.27,1.66-.05,2.44.12.38.3.75.61,1.02.31.29.71.62,1.1.88-.02.57.64.64.8,1.06-.11.91,1.17.71,1.12,1.6.24.47.97.75,1.13,1.26.53.26.97.83,1.64.94.38.27.95.57,1.46,1.03.51.46.9,1.01,1.24,1.5-.07.75.59,1.08.61,1.82.12.65.08,1.35,0,1.94-.07.59-.09,1.14-.03,1.69.11,1.11.44,2.2.69,3.33-.23.23-.06.44.1.57.44.2.31.67.28,1.04.18.19.33.34.14.65.53.37.52.92.85,1.35.26.56.21,1.24.46,1.87-.57.39.65.29.07.68.48.28.09.8.3,1.14.17,1.06.28,2.1.42,3.14l-.15.21c.13.72.3,1.38.48,2.03.18.64.41,1.23.69,1.89.47.24.07.8.66.97.08.65.72,1.1.71,1.86.4.3.49.8.55,1.28.07.48.14.95.56,1.33.16.83.25,1.82.31,2.62-.39.26.09.51-.03.74.25,1.54.33,2.94,1.1,4.14.71,1.25,1.75,2.33,2.95,3.26.54.7,1.37,1.31,1.92,2.08.37-.03.56.3.66.56.29.39.56,1.07,1.17,1.12.23.84,1.1,1.09,1.59,1.74.52-.31.23.29.42.39.9.65,1.59,1.74,2.73,1.99.84.79,2.09,1.42,3.06,1.98.01.54.54.4.66.82.18.39.94.26.96.83.78-.26.3.77.98.66l.04.28c.55.33.82.94,1.04,1.5.56-.18.49.28.65.5.42.69,1.08,1.1,1.51,1.74.9.64,1.69,1.41,2.52,2.13.38.89,1.72.96,2.13,1.89.61.53,1.31,1.2,1.9,1.76.36.2.69.39.78.86l1.3.98c.07.46.53.5.75.83.43.24.81.6,1.09,1.03.83.47,1.39,1.3,2.15,1.9.56.03.66.86,1.33.82.1.77,1.13.55,1.24,1.28.48.17.15.96.81.94.35.41.61.97,1.28,1.1.19.93,1.01,1.46,1.41,2.19.2.64,1.16,1,.96,1.79.54.37.42,1.03.92,1.45-.2.49.32.68.47,1.04.66.53.21,1.48.55,2.13.8.5.5,1.59.86,2.33.13,1.62.84,3.35.48,4.93.74.62-.21,1.36.29,2.03.08.55-.03,1.15-.06,1.73-.33.31-.99.08-1.11-.1Z"/>
            <path class="cls-2" d="M36.29,29.56c.06.3-.13.6-.44.67-.31.06-.6-.13-.67-.44-.06-.3.13-.6.44-.67.31-.06.6.13.67.44Z"/>
            <path class="cls-2" d="M61.69,167.74c.03.31.3.54.61.51.31-.03.54-.3.51-.61-.03-.31-.3-.54-.61-.51-.31.03-.54.3-.51.61Z"/>
          </g>
        </g>
        <g>
          <g>
            <path class="cls-1" d="M87.79,116.42c.11-.6-.26-.77-.56-1.1-.54.14.39-.69-.37-.4-.12-.25-.57-.28-.3-.78-.31-.46-.6-.92-1.01-1.31-.26.09-.19-.08-.08-.26-.48-.17-.69-.59-.88-1-.65-.39-.83-1.26-1.55-1.59,0-.21.16-.57-.31-.31-.16-.16-.06-.61-.47-.46.16-.54-.54-.23-.57-.55.22-.33.05-.35-.09-.33-.25.15-.23.05-.22-.09-.46.08-.16-.71-.69-.53-.3-.53-.77-.81-1.19-1.13.17-.38-.22-.2-.32-.3-.27-.44-.65-.77-1.09-1.07-.38.14-.12-.51-.42-.47-.29-.33-1.06-.18-1-.93-.81.55.05-.93-.81-.3.08-.48-.43-.27-.61-.39.16-.35-.03-.36-.18-.34-.21.18-.26.05-.25-.08.13-.51-.73.17-.36-.62l-.34.07c-.27-.42-.69-.63-1.02-.91-.26.19-.28-.01-.2-.26-.29.07-.27-.39-.7-.11.15-1.23-1.16-.44-1.28-1.34-.31-.11-.37-.51-.88-.3-.05-.33-.31-.48-.58-.46-.41-.39-.88-.66-1.36-.95-.29.3-.24,0-.27-.16-.35.1-.37-.42-.7-.3-.3-.36-.78-.54-1.08-.93-.54.61-.1-.42-.51-.09-.19,0-.25-.39-.61-.06-.05-1.07-1.24-.35-1.46-1.12-.4-.25-1.09-.1-1.26-.81-.37.18-.26-.51-.72-.2-.05-.35-.38-.15-.46-.46-.12-.33-.67.13-.71-.3-.67-.35-1.39-.87-2.13-1.1.13-.54-.35.17-.29-.26-.46.05-.69-.49-1.1-.57-.42.42-.12-.52-.54-.11-.19-.66-.86-.38-1.26-.68.2-.7-.46.15-.33-.45,0-.25-.37.28-.32-.07-.62.03-.82-.75-1.48-.58-.26-.32-.68-.29-.92-.61-.44.08-.65-.41-1.1-.45-.54-.08-1.15-.19-1.62-.63-.29.14-.45-.23-.78.02-.3-.35-.7-.36-1.06-.49-.12.19-.22.16-.24.02l.02-.18c-.32-.12-.77.2-.89-.41-.63.38-.84-.34-1.31-.37-.26.13-.33-.25-.53-.27-.19.07-.14-.43-.44-.12-.5.16-.56-.72-1.05-.53-.15-.4-.51-.48-.84-.53.06-.52-.58.34-.56-.18-.38-.55-1.19-.31-1.5-.96-.24-.03-.49-.08-.73-.13.22-.55-.13-.24-.23-.33-.52-.03-.7-.61-1.12-.76.03-.33-.38-.04-.37-.39-.42.03-.65-.26-.85-.56-.26-.05-.29-.48-.71-.37.19-.53-.3-.31-.45-.45-.22-.18-.2-.67-.66-.53-.12-.44-.7-.4-.77-.9-.68-.36-.97-.96-1.61-1.35.11-.35-.46-.1-.27-.54-.74.44.12-.64-.54-.3.44-.69-.58.03-.33-.47-.11-.55-.95-.3-.89-1.01-.33-.07-.38-.46-.81-.43.07-.29-.09-.32-.28-.35-.42-.24-.57-.78-.98-1-.24.14-.3,0-.31-.15-.21-.44-.57-.61-.96-.82-.04-.63-1.03-.17-.91-.99-.47.28-.04-.58-.6-.18-.3-.6-.77-.86-1.32-1.17-.22.03-.28-.18-.39-.31-.04-.24-.32-.35-.46-.49-.37.12-.19-.52-.64-.32-.15-.53-.72-.72-1.05-1.05-.34.21-.23-.19-.34-.28l-.79-.64c-.37.31-.04-.28-.19-.27-.38.06-.42-.34-.67-.43.17-.64-.65.07-.51-.5-.48-.14-.78-.56-1.21-.8-.66-.09-.78-.94-1.5-.91.06-.76-.79-.31-1-.76-.21-.22-.39-.59-.86-.36-.09-.61-.62-.58-.92-.87.02-.11.14-.29.24-.45.86-.97.44.28,1.06-.23-.15.91.78.24.84.83.31.35,1.01.36,1.24.83.29-.25.15.11.23.16.42.02.35.72.9.55.24.91,1.47.61,1.72,1.51.53-.55.19.16.35.16.19.25.29.6.78.43-.09.43.22.47.56.34-.12.7.61.29.58.9.38-.1.23.55.7.34l1.2.88c-.05.3.11.32.3.34.23.16.16.72.7.47.25.9,1.13.93,1.6,1.53.37-.02.38.48.67.56-.02.21.07.27.31.15.29.31.42.73,1.03.66,0,.26-.21.81.31.47l.3.5c.29-.12.11.38.48.19,1.73,1.58,3.11,3.67,4.98,4.92.06.49.7.27.72.85l.21-.06.51.64c.44-.05.59.35.87.48.32.51.92.72,1.26,1.21.03.38.77-.25.63.34.83.35,1.27,1.26,2.35,1.15,0,.43.42.13.53.35-.04.73.76-.11.75.58.16.22.63.04.74.38.35-.04.59.32.95.28.35.33.93.64,1.46.73.1.49.51.16.73.39.99.5,2.23.46,3.25,1.03-.02.29.13.24.24.17.27-.29.37.04.47.25.14-.06.26-.11.27.19.37-.26.54,0,.83-.07.31.04.5.4.83.45-.17.64.42-.43.26.22.34-.29.32.23.55.17l1.37.7v.2c.66.27,1.28.43,1.88.81.34-.18.19.43.58.13.16.34.6.2.72.66.57-.21.54.87,1.22.45.34.19.75.42,1.09.61-.09.41.24.08.27.25,1.43.5,2.48,1.62,3.91,2.1.3.33.77.49,1.08.82.24-.19.34-.03.4.13.17.16.33.55.72.31.12.54.68.33.96.65.36-.47.13.14.24.14.55.16.83.86,1.49.79.37.46,1.01.7,1.53.89-.1.44.27.18.27.48.05.27.56-.09.5.34.56-.5.1.48.59.11v.2c.35.01.49.34.6.66.42-.38.32,0,.42.09.24.33.66.39.85.76.52.22.89.6,1.32.92.08.58.99.24,1.08.85.31.24.67.53.98.78.22.04.41.08.38.42l.72.36c-.04.33.27.23.36.42.26.06.45.22.56.48.51.14.67.69,1,1.02.39-.07.17.55.66.38-.17.57.62.15.53.63.31-.04-.07.64.43.41.19.18.28.51.75.38-.03.61.5.7.71,1.04.07.37.79.17.61.75.42-.01.3.45.69.49-.18.39.24.28.37.42.53.03.16.78.46.99.68-.08.47.65.85.85.26.76,1.22,1.14,1.26,2.01.77-.13.12.7.69.72.19.19.22.51.32.77-.21.32-.81.58-.94.56Z"/>
            <path class="cls-2" d="M13.77,62.74c-.26-.17-.34-.51-.18-.78.17-.26.51-.34.78-.18.26.17.34.51.18.78-.17.26-.51.34-.78.18Z"/>
            <path class="cls-2" d="M87.93,116.44c.18.25.54.31.79.13.25-.18.31-.53.13-.79s-.53-.31-.79-.13c-.25.18-.31.53-.13.79Z"/>
          </g>
          <g>
            <path class="cls-1" d="M28.32,108.08c.41-.21.18-.29.09-.42-.53.04.67-.25-.12-.16.02-.1-.35-.12.12-.3-.04-.18-.06-.37-.2-.53-.27.03-.12-.03.07-.1-.31-.08-.26-.25-.19-.42-.31-.17.06-.54-.27-.71.12-.09.47-.23-.04-.14-.02-.07.33-.26-.06-.21.45-.22-.26-.12-.07-.26.37-.13.25-.15.14-.15-.28.06-.2.01-.1-.05-.38.02.33-.31-.17-.25.11-.24-.06-.37-.17-.52.36-.17-.03-.09-.05-.14.08-.2.03-.37-.08-.51-.36.06.25-.24.01-.23.02-.16-.61-.11-.08-.46-.91.25.64-.44-.35-.16.37-.23-.11-.14-.15-.2.33-.17.21-.17.1-.17-.25.08-.2.02-.11-.04.42-.25-.6.08.16-.31l-.28.04c.09-.21-.06-.31-.1-.45-.29.1-.18,0,.04-.13-.24.04.07-.2-.39-.05.89-.65-.48-.22.04-.7-.13-.06.1-.27-.36-.16.19-.18.13-.26-.05-.25.01-.22-.09-.37-.17-.54-.38.16-.14,0-.05-.09-.27.05.07-.24-.2-.18.07-.21-.09-.32.01-.55-.73.33.23-.24-.23-.06-.11,0,.12-.22-.31-.05.7-.6-.48-.22-.07-.66-.06-.15-.55-.08-.17-.49-.34.09.2-.29-.27-.13.22-.2-.11-.1.05-.27.16-.19-.47.05-.2-.19-.14-.22-.2-.53-.47-.68.45-.29-.32.08.02-.15-.28,0-.02-.31-.2-.37-.53.21.3-.29-.22-.08.36-.37-.21-.25-.23-.43.6-.38-.37.07.14-.27.17-.14-.41.14-.13-.05-.37,0,.08-.46-.39-.4.1-.2-.15-.21-.04-.41-.28,0-.02-.29-.2-.36-.19-.11-.36-.25-.21-.56-.22.04,0-.19-.34-.1.15-.24,0-.29-.05-.41-.19.09-.21.06-.12-.02l.15-.1c-.04-.11-.49.04-.09-.32-.58.18-.14-.26-.38-.29-.23.07-.01-.15-.1-.17-.15.04.22-.26-.16-.08-.38.1.18-.44-.21-.33.18-.24.03-.29-.12-.32.38-.33-.54.21-.19-.11.15-.34-.45-.18-.2-.58l-.34-.05c.46-.35.07-.14.06-.19-.29.02-.07-.31-.26-.36.2-.21-.23.02-.03-.19-.29.08-.29-.07-.27-.22-.15.01.06-.26-.28-.12.4-.36-.04-.15-.07-.21-.06-.08.2-.39-.17-.23.15-.26-.26-.13-.08-.41-.3-.08-.25-.38-.55-.46.22-.24-.29.05.03-.26-.71.44.35-.42-.26-.06.6-.53-.43.16-.04-.21.15-.31-.54.03-.2-.42-.2.03-.06-.2-.37-.09.18-.2.08-.19-.03-.16-.18-.07-.03-.38-.21-.44-.23.14-.2.06-.14-.03.06-.24-.1-.27-.26-.33.26-.41-.6.11-.15-.46-.43.29.24-.38-.31.01.07-.33-.12-.4-.33-.48-.15.07-.1-.06-.11-.12.08-.16-.05-.16-.08-.23-.28.17.1-.31-.28-.06.13-.33-.16-.32-.23-.47-.3.23-.07-.07-.1-.11l-.24-.24c-.37.31.09-.18-.01-.14-.26.14-.13-.13-.25-.13.37-.48-.43.2-.11-.23-.24.02-.24-.22-.41-.28-.37.09-.09-.48-.54-.3.36-.56-.34-.06-.27-.35-.02-.12.04-.36-.34-.11.22-.43-.09-.31-.13-.48.06-.09.21-.24.35-.37.94-.87.13.12.72-.36-.5.7.34.03.11.45.02.2.42.06.36.35.28-.25.05.04.07.07.24-.08-.09.43.32.18-.23.59.65.09.43.67.56-.52.05.07.15.03.02.12-.06.35.32.1-.23.32-.05.27.22.1-.36.51.27.05,0,.48.29-.16-.08.32.31.07l.4.33c-.16.22-.06.19.05.16.08.06-.21.46.25.17-.24.56.33.38.38.68.25-.09.04.24.19.23-.11.14-.08.16.14.03.05.15-.05.39.39.23-.12.17-.5.56,0,.25l-.03.26c.25-.14-.1.22.24.03.42.68.64,1.53,1.4,1.94-.18.29.36.05.08.42l.17-.07.02.33c.32-.1.22.13.34.17-.04.27.25.32.21.59-.18.23.64-.23.22.15.35.15.02.72.67.65-.28.27.15.08.07.22-.5.46.49-.07.04.36-.06.14.32.02.17.23.22-.02.11.2.33.19-.03.21.08.4.3.49-.3.3.15.14.08.3.09.4.62.56.59,1.02-.24.16-.14.15-.03.13.34-.12.12.07,0,.2.11-.02.21-.03-.03.14.37-.1.24.06.43.05.11.05-.06.26.07.32-.56.35.53-.21-.03.14.39-.14,0,.15.17.13l.24.46-.14.11c.18.18.41.29.48.53.32-.09-.19.24.23.1-.16.2.19.14-.07.4.46-.08-.33.51.36.3.06.12.14.25.2.37-.34.23.09.05-.02.15.47.32.31.97.79,1.27-.06.19.12.29.06.49.27-.1.22,0,.14.08,0,.1-.19.32.2.19-.3.3.17.2.11.39.53-.25-.02.08.04.08.21.1-.1.49.34.47-.09.26.14.4.33.5-.36.24.05.1-.15.26-.15.14.41-.04.09.18.68-.26-.25.26.3.06l-.13.1c.22,0,.1.18-.03.35.51-.2.21,0,.22.05-.06.17.19.2.08.39.2.11.21.31.3.47-.32.29.52.14.18.44.05.13.11.28.16.4.12.02.23.05-.02.21l.26.19c-.25.15.04.11-.02.2.14.03.17.11.08.24.27.08.04.33.07.49.33-.02-.21.25.25.19-.48.25.36.09,0,.3.26,0-.45.28.06.2.03.09-.11.23.32.2-.41.26-.07.32-.12.48-.18.16.49.11,0,.34.33.01-.04.2.24.23-.36.15.03.12.05.18.41.03-.31.32-.17.41.6-.02.04.27.26.36-.17.3.46.48.08.82.72-.02-.24.27.24.3.07.08-.07.21-.13.31-.34.1-.98.16-1.09.15Z"/>
            <path class="cls-2" d="M12.94,81.51c-.22-.22-.23-.57-.01-.8.22-.22.57-.23.8-.01.22.22.23.57.01.8-.22.22-.57.23-.8,0Z"/>
            <path class="cls-2" d="M28.43,108.1c.05.31.34.52.65.47s.52-.34.46-.65c-.05-.31-.34-.52-.65-.47-.31.05-.52.34-.46.65Z"/>
          </g>
          <g>
            <path class="cls-1" d="M7.18,61.54c-.1.44.04.27.14.23.24-.48-.22.68.13-.05.03.05.22-.25.07.22.09.04.18.09.31.04.12-.24.07-.09,0,.1.18-.23.23-.11.26.02.23-.19.18.29.42.08-.03.14-.16.49.07.03.04.02-.08.39.11.05-.16.47.18-.15.14.06-.15.36-.08.28-.02.19.13-.25.11-.17.07-.06.21-.32-.07.42.19-.01.02.2.16.14.28.14-.15.36.05.03.08.04.02.17.1.22.22.22.21-.29-.09.32.06.14.03.1.44-.36.18.22.56-.76-.33.69.28-.14-.2.38.11.01.16.03-.2.31-.12.24-.04.17.17-.21.15-.14.09-.04-.26.41.43-.41-.06.29l.2-.18c-.03.19.1.17.15.24.21-.22.14-.09,0,.11.18-.15-.03.16.31-.17-.65.88.41-.08.03.49.1-.02-.07.23.3-.05-.14.2-.09.23.05.15,0,.15.08.21.15.29.31-.27.12-.06.04.04.23-.15-.06.19.16.04-.06.17.06.18-.02.37.61-.52-.2.25.19-.05.09-.04-.11.2.25-.09-.6.68.39-.04.04.41.04.08.46-.16.12.26.28-.19-.18.28.22-.02-.19.22.09.02-.06.2-.14.19.39-.22.16.05.11.09.15.27.36.27-.38.37.27-.18-.02.11.23-.11,0,.19.15.17.44-.35-.26.32.18-.04-.3.38.13.1.17.18l.21.44c.1.22,0,.48-.21.58-.07.03-.14.04-.21.04h-.01c-.33-.63.1.35-.19-.18-.11-.18.15.4-.01.1.05.33-.3-.17-.19.27-.14-.13-.11.09-.25-.06.04.26-.18-.05-.2.1-.04.14-.11.27-.33.06.05.21-.12-.04-.02.28-.17-.19-.19-.07-.26-.05.08.2.07.21,0,.1l-.08-.16c-.06.01.08.45-.2,0,.18.56-.15.05-.14.26.07.22-.1-.03-.1.05.04.14-.19-.26-.03.12.1.36-.3-.29-.19.09-.18-.23-.19-.12-.2,0-.25-.43.19.54-.05.13-.24-.24-.07.33-.36-.02v.27c-.28-.51-.1-.11-.12-.11.05.26-.2-.04-.2.11-.16-.23.05.2-.12-.03.09.27,0,.23-.11.16.03.13-.18-.12-.04.2-.3-.44-.09,0-.12,0-.04.02-.29-.28-.12.08-.2-.19-.02.18-.26-.04.01.22-.18.12-.15.34-.23-.22.13.23-.19-.08.55.63-.4-.34.06.19-.59-.54.28.35-.12,0-.27-.14.26.38-.19.09.12.14-.1.03.14.23-.23-.12-.17-.06-.09.01.06.09-.22.03-.16.13.24.11.17.1.07.07-.21-.01-.12.08-.05.16-.46-.03.5.21-.22.15.51.1-.43.01.24.12-.27.06-.19.16-.09.26.16.03.04.05,0,.08-.16.03-.07.08-.09.11.32.03-.28.09.16.11-.32.08-.1.17-.15.26.38,0,0,.05,0,.08v.18c.49-.02-.18.05-.07.06.29.02,0,.09.1.13-.59.1.45.04-.07.13.19.07.03.17.11.25.33.07-.26.24.19.3-.64.15.21.13-.04.24-.07.06-.27.15.18.15-.45.13-.14.17-.22.25-.1.02-.32.04-.51.07-1.27.12-.01-.09-.77-.05.84-.17-.23-.12.22-.24.11-.1-.27-.16-.03-.27-.37.03,0-.03,0-.05-.24-.04.36-.17-.11-.18.57-.2-.42-.24.13-.44-.76.05.01-.05-.1-.06.06-.06.27-.13-.17-.15.39-.07.22-.1-.1-.12.61-.11-.17-.12.32-.21-.32-.03.28-.11-.19-.13l-.07-.29c.27-.03.18-.06.07-.09-.02-.06.46-.1-.07-.17.56-.13.02-.3.2-.45-.24-.1.15-.11.04-.19.18.01.17-.01-.07-.09.08-.09.3-.09-.08-.32.2.02.73.18.2-.07l.21-.05c-.24-.15.22.03-.12-.18.33-.5.91-.57,1.06-1.13.24.22-.02-.3.29.02l-.08-.16.23.06c-.11-.31.06-.16.07-.25.19.12.19-.13.38-.01.17.23-.23-.62.08-.14.06-.25.48.21.37-.37.21.33.04-.1.14,0,.35.58-.09-.45.23.08.1.09-.01-.27.14-.07-.04-.2.12-.04.08-.24.14.09.25.04.27-.13.23.34.07-.09.18.01.24.02.27-.4.56-.27.13.25.12.16.08.06-.12-.33.03-.09.12.04-.03-.1-.05-.19.09.06-.12-.36,0-.2-.03-.38.02-.09.17.11.19,0,.3.58-.21-.53.09.06-.15-.38.09.04.05-.12l.25-.12.09.15c.04-.05.07-.12.1-.18l-.14.72c-.08-.02-.15-.04-.18-.11-.26.18.17-.24-.19.03.13-.19-.16-.01.07-.29-.38.24.29-.47-.29-.06-.05-.05-.1-.12-.15-.17.29-.29-.07,0,.02-.11-.38-.03-.21-.53-.6-.54.06-.15-.08-.15-.03-.3-.22.17-.18.09-.12,0,.01-.07.17-.29-.16-.04.26-.32-.13-.06-.07-.21-.44.39.02-.06-.03-.04-.17.03.09-.37-.27-.15.08-.21-.11-.19-.26-.17.28-.32-.04-.04.12-.23.11-.16-.32.23-.07-.07-.53.5.19-.29-.24.11l.1-.13c-.17.11-.08-.05.01-.23-.38.39-.16.12-.17.09.03-.14-.15-.02-.09-.19-.16.05-.18-.06-.26-.1.18-.37-.37.26-.18-.13-.05-.03-.12-.08-.17-.11-.08.07-.15.13-.03-.13l-.2.09c.11-.26-.05-.03-.03-.12-.09.09-.13.07-.11-.06-.18.17-.11-.14-.18-.19-.18.27.05-.29-.19.1.19-.5-.23.25-.09-.14-.14.21.16-.5-.09-.04-.04-.02-.01-.2-.23.17.13-.45-.07-.21-.1-.31.04-.22-.29.36-.12-.15-.17.27-.05-.12-.2.1.13-.37-.06-.03-.09-.04-.21.33.03-.39-.07-.32-.29.51-.12-.07-.26.08-.04-.27-.41.21-.36-.25-.33.63,0-.31-.23.09-.06.03-.05-.14-.07-.22.12-.34.39-.91.44-1Z"/>
            <path class="cls-2" d="M8.77,73.05c.04.31-.18.59-.49.63-.31.04-.59-.18-.63-.49-.04-.31.18-.59.49-.63.31-.04.59.18.63.49Z"/>
            <path class="cls-2" d="M7.12,61.63c-.29-.12-.62.01-.74.3-.12.29.01.62.3.74.29.12.62-.01.74-.3.12-.29-.01-.62-.3-.74Z"/>
          </g>
        </g>
        <g>
          <path class="cls-1" d="M30.72,70.68c.25-.4,0-.4-.17-.51-.48.24.49-.53-.21-.14-.04-.12-.4-.01-.05-.39-.13-.2-.25-.4-.46-.56-.25.1-.13-.01.02-.14-.34-.02-.37-.27-.36-.49-.39-.19-.1-.7-.47-.9.11-.11.44-.29-.06-.18-.03-.09.31-.32-.09-.27.44-.27-.28-.15-.11-.32.36-.15.24-.17.13-.17-.28.06-.2,0-.11-.06-.39.01.3-.37-.2-.31.09-.29-.1-.45-.23-.64.35-.19-.04-.12-.06-.17.06-.24-.01-.44-.14-.63-.36.05.23-.28-.01-.28,0-.19-.64-.2-.11-.58-.93.19.65-.46-.37-.25.37-.23-.12-.19-.16-.28.34-.15.22-.18.11-.19-.26.06-.21-.01-.12-.07.43-.22-.62-.03.18-.35l-.28-.02c.1-.24-.04-.41-.06-.6-.31.03-.18-.06.05-.15-.25-.03.1-.22-.39-.19,1-.47-.44-.46.19-.85-.11-.13.17-.28-.3-.36.23-.13.2-.25.03-.33.08-.26.05-.49.04-.74-.41-.03-.13-.09,0-.14-.27-.11.17-.23-.09-.34.16-.19.08-.42.3-.6-.79-.11.33-.11-.16-.21-.08-.07.23-.16-.23-.25.93-.19-.26-.54.33-.75.04-.2-.4-.45.15-.62-.33-.13.34-.18-.15-.32.29-.07-.04-.18.2-.25.24-.09-.42-.26-.05-.33.01-.32.14-.68.01-1.02.54,0-.31-.13.11-.15-.23-.19.16-.33.05-.51-.56-.13.42-.1-.14-.24.51-.15-.03-.4.06-.6.71.02-.34-.18.27-.18.22-.03-.42-.13-.07-.14-.3-.26.33-.42-.09-.69.19-.14,0-.32.21-.44-.23-.19.16-.31.05-.51-.08-.24-.14-.51.16-.72-.2-.12.11-.19-.21-.34.26-.13.17-.3.21-.46-.21-.05-.21-.09-.08-.1h.18c.03-.14-.41-.32.13-.38-.56-.25.06-.36-.12-.57-.22-.1.09-.16.03-.25-.14-.08.33-.09-.07-.2-.35-.2.43-.29.05-.49.3-.1.22-.26.13-.4.5-.02-.55-.22-.06-.25.34-.21-.21-.52.26-.71l-.21-.31c.58.03.15-.08.17-.13-.23-.21.17-.36.06-.55.29-.04-.18-.16.1-.21-.27-.16-.17-.29-.05-.43-.12-.11.21-.2-.13-.34.53-.02.06-.17.09-.26,0-.12.41-.2.03-.35.28-.13-.11-.33.21-.45-.17-.32.06-.56-.11-.87.33-.05-.25-.18.2-.23-.83-.14.54-.12-.16-.26.8-.02-.43-.19.11-.23.32-.17-.43-.4.13-.56-.17-.13.09-.24-.22-.38.27-.05.19-.11.08-.18-.09-.21.23-.38.14-.58-.26-.05-.19-.11-.08-.14.21-.18.12-.34.04-.52.47-.16-.5-.39.22-.55-.51-.09.43-.15-.24-.25.27-.25.19-.47.08-.73-.16-.07-.03-.14,0-.21.16-.08.07-.19.09-.28-.32-.09.28-.2-.16-.29.31-.19.1-.42.15-.61-.38-.05,0-.12,0-.18l-.02-.42c-.48-.02.19-.09.08-.13-.29-.09-.02-.22-.11-.32.59-.15-.46-.15.06-.29-.2-.17-.06-.38-.16-.56-.35-.16.19-.52-.29-.62.59-.33-.28-.24-.08-.44.04-.11.15-.34-.27-.17.32-.36,0-.27,0-.38.05-.09.17-.27.28-.43.4-.5.49-.43.51-.32.03.11-.03.24.31.05-.25.36-.16.39-.02.43.14.03.34.06.16.25-.02.24.42.38.25.66.37-.06.02.08.03.12.27.11-.29.39.19.44-.52.41.49.63-.04,1.02.76-.03,0,.11.1.15-.06.14-.26.27.19.37-.38.1-.22.21.1.28-.61.17.17.28-.32.44.32.09-.27.23.19.32l.07.63c-.27.06-.18.12-.07.19.02.12-.46.24.07.36-.55.31-.01.62-.18.93.25.12-.14.25-.02.37-.18.04-.17.09.08.14-.07.17-.31.32.12.51-.2.06-.76.12-.18.22l-.2.23c.28.07-.22.13.16.21-.13.97-.53,1.96-.24,2.94-.33.13.24.34-.21.46l.17.07-.2.32c.31.16.08.29.14.43-.21.22-.02.5-.24.72-.29.07.63.28.06.31.15.41-.49.7.04,1.13-.4.04.05.19-.1.26-.68.05.41.31-.22.37-.14.09.22.27-.04.35.18.15-.05.28.13.43-.16.18-.19.45-.07.69-.42.08.03.24-.13.35-.17.46.14.99-.15,1.43-.29,0-.2.06-.1.1.34.11.05.16-.11.21.1.06.18.11-.1.12.36.15.15.23.32.35.06.13-.2.22-.13.37-.66-.04.55.16-.1.12.4.13-.09.15.06.24l-.06.63-.18.02c.04.3.17.58.09.87.31.12-.3.12.13.26-.24.1.08.27-.29.37.42.22-.57.31.12.56-.02.16-.04.35-.05.51-.41,0,.04.11-.1.14.2.64-.32,1.21-.1,1.83-.16.17-.08.38-.23.55.28.06.18.13.07.17-.06.09-.34.22.06.33-.43.14.02.31-.12.46.58.04-.06.07,0,.11.14.21-.31.47.11.66-.18.23-.02.49.13.68-.41.12.01.13-.22.22-.18.11.41.1.04.24.73-.05-.31.2.28.17l-.15.07c.21.08.06.23-.1.38.55-.07.21.06.21.12-.09.18.16.28.02.47.19.18.18.4.26.6-.34.29.51.23.17.53.05.15.11.33.16.48.13.04.23.08,0,.25l.28.24c-.24.17.05.14,0,.24.15.04.19.14.11.29.29.1.08.4.13.59.33-.02-.19.3.27.24-.46.29.38.12.03.36.26,0-.43.32.08.24.04.1-.09.28.34.24-.38.31-.04.38-.07.56-.16.19.5.1.05.39.34-.01,0,.23.28.23-.33.21.05.13.08.19.41-.05-.23.4-.06.48.57-.16.14.28.38.32-.03.39.64.35.45.85.65-.3-.08.38.38.23.11.06.05.25.06.38-.25.26-.8.59-.91.62Z"/>
          <path class="cls-2" d="M28.01,33c-.26-.18-.32-.53-.14-.78s.53-.32.78-.14c.26.18.32.53.14.78s-.53.32-.78.14Z"/>
          <path class="cls-2" d="M30.83,70.65c.18.25.54.3.79.12.25-.18.31-.54.12-.79-.18-.25-.54-.3-.79-.12s-.3.54-.12.79Z"/>
        </g>
        <g>
          <path class="cls-1" d="M48.91,78.8c.17-.46-.11-.44-.31-.56-.45.3.38-.62-.26-.14-.07-.12-.43.02-.16-.43-.2-.21-.38-.42-.65-.56-.22.15-.14,0-.03-.16-.35.04-.46-.2-.54-.44-.45-.09-.4-.7-.86-.79.05-.16.28-.46-.16-.17-.08-.09.12-.45-.23-.26.28-.44-.35-.07-.28-.31.27-.29.14-.27.03-.23-.24.16-.19.08-.14-.03-.38.14.1-.5-.37-.28-.06-.34-.33-.47-.56-.66.26-.3-.1-.12-.15-.18-.05-.29-.22-.5-.43-.69-.35.13.12-.37-.13-.32-.07-.22-.72-.08-.34-.62-.85.43.45-.67-.46-.18.27-.35-.19-.18-.27-.26.27-.25.14-.26.02-.24-.23.13-.21.04-.15-.05.33-.37-.62.14.02-.44l-.29.06c0-.29-.22-.44-.33-.64-.28.13-.2-.01-.02-.18-.25.04-.01-.28-.46-.09.74-.84-.64-.39-.22-1.03-.16-.13.05-.38-.43-.38.18-.21.12-.36-.07-.44.02-.34-.05-.61-.11-.89-.41.04-.15-.08-.03-.16-.29-.07.11-.3-.17-.36.11-.25-.04-.48.1-.75-.79.12.27-.22-.23-.19-.11-.06.15-.25-.31-.21.18-.11.25-.2.27-.28l.04.1c-.02-.27-.71-.2-.43-.62-.1-.23-.64-.27-.27-.74-.36.03.18-.36-.32-.27.21-.22-.14-.18.03-.37.16-.21-.51-.08-.24-.34-.17-.36-.25-.83-.53-1.16.48-.23-.34-.02.02-.21-.3-.12-.02-.45-.19-.61-.57.07.34-.29-.23-.22.41-.37-.2-.46-.19-.73.67-.24-.39-.09.18-.31.2-.11-.44,0-.12-.14-.37-.21.16-.61-.31-.81.14-.23-.09-.39.07-.61-.27-.17.08-.42-.07-.64-.14-.28-.25-.6.02-.92-.22-.11.08-.26-.27-.37.24-.21.12-.4.13-.6-.21-.02-.22-.07-.1-.11l.18-.03c.01-.18-.45-.31.07-.5-.6-.2,0-.44-.21-.66-.23-.08.06-.21-.01-.3-.15-.06.31-.17-.1-.22-.38-.17.37-.43-.04-.59.27-.18.17-.35.05-.5.49-.14-.58-.13-.12-.28.29-.33-.32-.56.08-.9l-.29-.31c.57-.12.12-.14.13-.2-.28-.19.06-.47-.09-.67.27-.13-.22-.14.05-.28-.3-.12-.24-.31-.15-.5-.14-.1.16-.29-.21-.38.51-.16.02-.22.03-.34-.02-.15.36-.34-.05-.44.25-.21-.18-.38.12-.61-.22-.36-.03-.7-.23-1.08.32-.09-.26-.2.18-.3-.83-.09.53-.2-.18-.3.8-.11-.44-.19.09-.3.3-.24-.46-.45.08-.7-.18-.14.07-.3-.25-.45.26-.08.18-.15.07-.23-.11-.25.19-.49.09-.72-.27-.04-.2-.12-.09-.17.19-.23.09-.43,0-.65.46-.23-.53-.45.17-.69-.51-.09.42-.21-.25-.29.26-.32.17-.59.06-.9-.16-.08-.04-.17,0-.26.16-.1.07-.24.09-.34-.32-.1.28-.25-.17-.36.31-.23.09-.52.14-.76-.38-.06,0-.15,0-.23l-.02-.52c-.48-.04.19-.11.08-.16-.29-.12-.01-.27-.1-.4.6-.15-.46-.22.07-.36-.19-.23-.04-.49-.13-.72-.34-.27.23-.62-.23-.86.63-.27-.24-.4-.01-.63.05-.15.23-.37-.23-.41.42-.28.07-.42.11-.62.09-.05.3-.11.48-.17,1.26-.25.08.26.84.21-.78.38.3.38-.12.67-.08.26.32.51.1.77.38,0,.01.1.02.15.25.16-.33.4.14.53-.55.42.45.78-.1,1.19.76.01-.01.13.1.19-.06.16-.27.32.18.45-.39.11-.22.24.1.33-.61.19.17.33-.32.53.32.11-.28.27.19.39l.08.76c-.26.08-.18.15-.07.23.02.14-.46.3.07.43-.55.4,0,.75-.15,1.13.25.13-.12.31,0,.45-.18.06-.16.12.09.17-.05.21-.28.41.16.61-.2.09-.74.2-.16.28l-.18.29c.28.07-.21.17.18.24-.03,1.18-.4,2.45.07,3.54-.3.22.29.34-.12.58l.18.05-.13.42c.33.12.15.33.24.47-.16.31.1.6-.06.91-.26.16.68.16.14.36.26.45-.29.96.33,1.35-.38.15.09.22-.04.34-.65.22.47.29-.13.51-.11.14.27.28.03.43.21.14,0,.35.21.5-.13.25-.11.58.04.85-.4.17.06.28-.07.44-.1.59.3,1.16.09,1.74-.28.05-.19.11-.08.15.36.06.08.17-.07.27.11.05.2.09-.08.17.38.09.2.23.39.34.09.13-.15.31-.04.46-.64.14.57.02-.07.17.42.03-.05.2.13.26.04.25.08.49.14.74l-.16.08c.14.33.37.59.41.95.34.02-.22.26.23.23-.18.21.19.27-.1.52.48.06-.37.59.38.56.07.18.15.4.21.58-.36.2.09.09-.02.2.52.58.41,1.43,1.01,1.95-.02.19.1.33.15.5l.05.11c0,.06,0,.12-.02.19.29-.02.23.09.14.18-.02.13-.23.36.19.37-.35.28.15.37.05.6.58-.09-.03.1.03.14.2.25-.19.65.27.82-.13.31.08.59.28.75-.38.22.05.13-.15.29-.14.17.42,0,.12.25.68-.28-.22.31.34.1l-.11.13c.24.02.16.23.08.46.49-.25.23,0,.25.07,0,.23.29.26.25.52.27.14.37.4.54.61-.21.42.62.13.41.57.12.16.26.35.37.52.14.02.27.04.1.28l.38.21c-.17.24.1.14.09.27.17.02.24.11.22.29.32.04.24.41.38.61.32-.12-.05.38.38.17-.31.45.42,0,.2.37.25-.09-.25.49.2.22.09.1.05.33.45.14-.21.46.17.42.23.62-.05.26.55-.06.26.41.33-.11.12.26.41.18-.23.33.12.13.19.2.41-.14-.03.51.17.57.54-.28.27.3.54.31.1.44.82.35.77.93.62-.37.02.43.48.24.13.06.12.28.17.43-.21.3-.72.69-.82.73Z"/>
          <path class="cls-2" d="M36.15,34.5c-.09-.3.07-.61.37-.71.3-.09.61.07.71.37.09.3-.07.61-.37.71-.3.09-.61-.07-.71-.37Z"/>
          <path class="cls-2" d="M49.02,78.76c.22.22.57.23.8.02s.23-.57.02-.8-.57-.23-.8-.02-.23.57-.02.8Z"/>
        </g>
        <g>
          <path class="cls-1" d="M56.96,77.31c.18-.46-.11-.47-.33-.6-.46.28.39-.62-.27-.16-.07-.13-.44-.01-.17-.45-.21-.23-.39-.46-.68-.62-.23.14-.15,0-.03-.16-.37.01-.48-.25-.56-.5-.47-.13-.41-.77-.89-.89.05-.16.29-.46-.16-.19-.08-.1.13-.45-.24-.29.29-.43-.36-.11-.28-.35.28-.27.15-.27.04-.24-.25.14-.2.06-.15-.05-.39.1.12-.51-.37-.33-.05-.37-.33-.53-.54-.75.28-.29-.1-.14-.14-.21-.04-.31-.2-.55-.4-.77-.36.1.14-.37-.11-.34-.07-.24-.73-.17-.32-.7-.89.34.5-.64-.46-.26.3-.33-.19-.22-.26-.32.3-.23.16-.25.04-.25-.25.1-.22.01-.14-.07.36-.34-.64.05.06-.45l-.29.02c.02-.31-.18-.49-.27-.72-.29.1-.2-.04,0-.2-.26,0,.01-.29-.46-.16.82-.79-.6-.45-.15-1.06-.16-.12.05-.39-.44-.34.17-.22.08-.36-.12-.4-.04-.34-.17-.61-.3-.89-.4.11-.16-.06-.07-.16-.3-.03.05-.34-.24-.36.06-.29-.12-.52-.03-.83-.78.19.24-.26-.26-.19-.12-.06.12-.28-.34-.21.75-.59-.52-.56-.08-1.04-.06-.26-.59-.41-.16-.82-.36-.04.23-.34-.28-.34.24-.19-.11-.2.08-.38.19-.2-.5-.17-.2-.39-.13-.4-.16-.89-.42-1.27.5-.19-.34-.06.04-.22-.29-.15.02-.48-.15-.66-.57.03.36-.27-.22-.25.43-.36-.18-.5-.16-.78.68-.22-.39-.12.19-.32.2-.11-.44-.03-.12-.16-.37-.24.18-.64-.3-.85.14-.24-.1-.41.07-.64-.28-.18.06-.45-.09-.68-.15-.29-.27-.63-.02-.98-.23-.11.06-.28-.28-.39.22-.24.11-.44.11-.65-.22-.01-.22-.07-.1-.11l.18-.03c0-.19-.47-.31.04-.53-.6-.18-.03-.47-.25-.69-.24-.07.04-.23-.04-.32-.15-.06.29-.21-.12-.23-.4-.15.33-.49-.09-.63.26-.21.14-.39,0-.54.47-.18-.59-.1-.14-.29.26-.37-.37-.59.01-.98l-.31-.32c.56-.16.12-.15.12-.22-.29-.19.03-.5-.13-.71.26-.15-.23-.14.03-.3-.31-.12-.26-.32-.19-.53-.15-.1.14-.32-.23-.39.5-.19,0-.24,0-.36-.03-.15.33-.38-.08-.46.23-.24-.21-.38.07-.64-.26-.35-.11-.72-.38-1.07.3-.15-.3-.16.11-.34-.84.06.48-.31-.24-.28.76-.27-.47-.11.02-.32.24-.32-.56-.37-.08-.74-.21-.11,0-.33-.35-.41.24-.14.13-.19,0-.25-.17-.23.06-.55-.11-.76-.27.03-.22-.07-.14-.15.12-.29-.04-.46-.19-.65.37-.37-.65-.3-.05-.74-.52.07.33-.34-.33-.21.14-.4-.04-.64-.27-.91-.18-.02-.1-.15-.1-.25.11-.16-.03-.26-.06-.36-.34.02.16-.35-.3-.28.19-.35-.13-.53-.2-.78-.36.1-.07-.14-.11-.21-.09-.16-.17-.32-.26-.47-.44.19.11-.19-.01-.19-.31.02-.15-.24-.3-.31.43-.44-.51.04-.14-.36-.28-.1-.31-.4-.52-.55-.43-.02-.2-.66-.73-.55.3-.62-.45-.14-.44-.47-.07-.14-.1-.43-.46-.13.08-.5-.27-.35-.4-.52.03-.1.12-.29.21-.47.68-1.08.26.13.76-.46-.26.84.52.07.45.59.14.25.64.19.66.55.29-.24.08.08.12.11.31-.01.02.54.48.38-.17.69.88.47.67,1.15.66-.38.06.13.19.13.04.19-.06.43.4.34-.28.29-.07.34.27.28-.45.47.32.26-.03.66.34-.03-.12.39.35.31.14.24.28.49.41.74-.21.18-.1.22.03.26.08.14-.31.47.24.41-.35.59.29.77.28,1.22.28.07-.01.35.15.46-.15.12-.12.17.14.15.02.24-.14.5.35.6-.16.15-.66.4-.07.33l-.09.35c.29,0-.16.23.24.21.28,1.27.23,2.63.82,3.8-.28.26.33.36-.07.65l.19.04-.1.46c.34.11.17.34.27.5-.14.34.13.63,0,.98-.25.19.69.15.16.37.28.47-.23,1.04.42,1.42-.36.18.11.22,0,.36-.64.27.49.27-.09.54-.1.15.29.28.07.46.22.13.04.37.25.52-.11.28-.06.63.11.91-.39.21.08.3-.04.48-.07.65.34,1.24.16,1.87-.28.07-.18.12-.07.16.36.05.09.18-.06.29.11.05.21.09-.07.18.39.09.21.25.4.36.09.15-.13.34-.02.5-.64.16.58.03-.06.18.42.03-.04.21.13.29l.14.81-.17.08c.14.37.36.66.38,1.05.34.05-.24.26.22.27-.19.21.18.31-.13.55.48.12-.41.59.34.64.05.21.11.45.17.65-.38.16.09.12-.04.21.46.71.24,1.6.75,2.28-.07.26.12.48.06.75.29-.03.23.08.16.18,0,.13-.2.39.23.37-.31.33.19.36.14.61.56-.17-.02.11.05.14.24.22-.06.7.43.79-.06.35.22.62.46.82-.35.26.07.16-.11.35-.13.18.45.03.14.29.69-.24-.22.32.35.15l-.12.13c.24.06.16.28.05.5.52-.19.24.04.25.11-.02.24.27.33.2.59.26.2.33.48.49.72-.25.4.61.23.36.65.11.18.23.4.34.58.14.04.27.07.08.3l.37.26c-.19.23.1.16.08.29.17.04.24.15.21.33.33.08.22.46.36.68.33-.09-.07.39.38.22-.34.44.43.05.19.41.26-.07-.28.48.19.25.08.11.04.34.46.18-.23.46.16.45.22.67-.05.27.57-.01.26.45.34-.09.12.28.42.22-.23.32.13.15.19.22.42-.12-.04.53.17.6.56-.25.27.33.56.36.11.47.85.41.8,1.02.64-.35.03.45.5.28.14.07.13.3.18.46-.21.29-.74.66-.85.7Z"/>
          <path class="cls-2" d="M38.38,31.5c-.28-.14-.4-.47-.26-.75.14-.28.47-.4.75-.26.28.14.4.47.26.75-.14.28-.47.4-.75.26Z"/>
          <path class="cls-2" d="M57.07,77.28c.21.23.57.25.8.04.23-.21.25-.57.04-.8-.21-.23-.57-.25-.8-.04-.23.21-.25.57-.04.8Z"/>
        </g>
      </g>
      <g>
        <g>
          <g>
            <path class="cls-1" d="M92.14,45.72c.5-.01.4-.28.47-.53-.39-.37.7.21.09-.31.11-.11-.08-.45.41-.27.18-.24.36-.45.37-.71-.22-.14-.07-.1.12-.06-.2-.27-.07-.4.06-.6-.13-.21-.03-.41.02-.63l.18.41c-.11-.14-.23-.26-.44-.29.03-.17.23-.49-.18-.16-.09-.08.07-.46-.27-.24.23-.46-.36-.05-.31-.29.24-.31.12-.28,0-.24-.23.18-.19.09-.15-.02-.37.16.05-.52-.4-.26-.09-.35-.38-.46-.62-.64.23-.32-.11-.12-.17-.18-.08-.29-.26-.5-.49-.67-.34.15.09-.38-.16-.31-.1-.22-.74-.03-.41-.61-.82.49.39-.71-.49-.16.25-.37-.21-.17-.3-.25.26-.27.12-.27,0-.25-.22.14-.21.05-.15-.04.3-.39-.62.16-.01-.45l-.29.07c-.03-.3-.25-.45-.37-.65-.27.14-.2,0-.03-.19-.25.05-.03-.28-.47-.08.69-.89-.65-.34-.29-1-.17-.09,0-.38-.48-.26.14-.24.03-.36-.17-.36-.08-.31-.25-.54-.42-.78-.37.19-.17-.02-.09-.14-.29.04-.01-.33-.3-.28,0-.28-.22-.45-.2-.76-.7.4.17-.31-.29-.1-.12-.01.05-.3-.37-.09.55-.78-.64-.33-.37-.91-.14-.21-.67-.14-.41-.67-.34.11.1-.4-.38-.19.15-.27-.17-.13-.07-.37.09-.25-.52.06-.32-.26-.27-.29-.5-.71-.88-.91.36-.4-.32.11-.06-.21-.32.01-.19-.41-.43-.48-.48.31.18-.41-.3-.1.2-.52-.37-.3-.5-.52.44-.56-.37.13-.01-.36.1-.2-.37.24-.18-.05-.42.04-.22-.59-.72-.44-.03-.27-.32-.23-.33-.5-.32.06-.23-.36-.49-.42-.29-.11-.6-.25-.65-.66-.23.08-.14-.24-.46-.06,0-.32-.22-.37-.37-.51-.16.15-.2.11-.15,0l.1-.15c-.13-.13-.54.13-.34-.39-.55.31-.35-.3-.65-.3-.22.12-.12-.19-.24-.2-.15.07.07-.35-.24-.08-.39.16-.09-.57-.48-.38.05-.32-.15-.37-.35-.39.23-.45-.5.32-.3-.12-.04-.44-.66-.19-.62-.72l-.44-.03c.33-.49,0-.19-.05-.24-.34.05-.29-.39-.55-.43.1-.28-.26.05-.16-.24-.31.12-.39-.06-.47-.26-.17.02-.1-.32-.42-.13.25-.47-.14-.18-.22-.26-.12-.09,0-.5-.35-.28.02-.33-.4-.14-.36-.51-.42-.08-.55-.46-.97-.55.13-.3-.33.07-.12-.33-.62.57.18-.54-.36-.07.44-.68-.44.2-.18-.27,0-.39-.67.04-.49-.54-.23.03-.19-.26-.52-.13.12-.25,0-.23-.13-.21-.26-.09-.25-.48-.5-.57-.21.17-.22.06-.19-.05-.05-.31-.27-.36-.5-.44.13-.5-.71.08-.41-.6-.41.32.12-.46-.39-.01-.07-.41-.34-.53-.66-.65-.16.07-.15-.08-.2-.17.03-.19-.14-.22-.21-.3-.29.17-.01-.38-.39-.12.02-.4-.34-.43-.5-.63-.3.24-.12-.1-.18-.15l-.41-.35c-.36.32.05-.22-.07-.18-.29.12-.22-.19-.38-.21.3-.54-.49.17-.22-.31-.3-.03-.39-.33-.63-.45-.45.02-.27-.64-.8-.53.3-.62-.47-.18-.45-.53-.06-.16-.05-.45-.47-.24.18-.48-.2-.43-.29-.66.06-.09.22-.23.36-.36,1.01-.79.19.2.83-.23-.48.73.43.14.24.6.08.26.55.2.55.53.29-.24.07.07.11.1.29-.04.01.52.46.31-.11.7.86.25.77.93.54-.54.08.1.2.06.07.16.05.42.45.18-.18.36.03.33.32.16-.27.58.37.1.18.6.3-.16.02.39.42.12l.64.45c-.11.25,0,.23.13.2.12.08-.06.55.39.23-.05.68.59.51.79.89.27-.09.16.3.35.31-.07.17-.02.2.19.05.13.19.13.49.58.31-.06.21-.35.69.11.31l.1.33c.24-.16,0,.28.31.04.87.85,1.62,1.92,2.8,2.37-.04.37.47.04.36.51l.16-.1.22.4c.33-.15.35.14.52.18.12.34.5.38.62.72-.07.3.62-.35.36.17.51.15.48.91,1.21.76-.16.37.22.09.22.26-.3.62.54-.14.28.45.02.18.4,0,.35.27.25-.05.27.23.52.19.1.26.37.48.68.55-.13.42.26.15.29.36.39.48,1.1.58,1.41,1.16-.15.24-.05.21.06.16.29-.22.19.07.15.25.12-.04.21-.08.07.18.34-.2.32.04.53-.01.16.05.12.34.31.39-.39.53.45-.35.07.18.34-.24.1.19.28.13l.6.55-.08.16c.32.21.68.34.91.66.32-.13-.08.34.33.12-.06.27.3.18.15.54.48-.12-.09.7.59.41.14.16.3.35.43.51-.28.31.13.07.05.2.72.45.84,1.34,1.54,1.8.02.27.26.41.29.69.26-.12.25,0,.2.12.03.13-.09.43.32.29-.22.4.28.3.28.55.51-.3.01.11.08.12.28.16.08.68.57.68,0,.35.32.56.57.72-.31.31.09.14-.06.35-.1.19.44-.04.18.26.65-.34-.17.35.36.09l-.1.14c.25.01.19.24.12.47.48-.27.24,0,.26.06.02.24.3.27.28.53.28.14.39.4.58.6-.18.43.63.1.45.55.13.16.29.34.42.5.15,0,.27.02.12.28l.4.19c-.15.26.12.14.12.27.17,0,.26.1.25.28.33.02.28.41.44.6.31-.14-.02.39.4.15-.28.48.43-.02.24.36.25-.1-.21.51.22.22.1.09.08.33.47.11-.17.48.21.41.3.61-.02.27.55-.1.31.39.2-.09.21.02.25.1l.16.27s.03.08.01.12c-.02.06-.02.12.08.18-.39.08,0,.2-.02.31.37.25-.41.37-.35.57.52.36-.15.48-.08.75-.43.31-.24.97-.8,1.02.51.51-.41.12-.1.51-.02.13-.22.19-.35.28-.35-.09-.89-.43-.96-.53Z"/>
            <path class="cls-2" d="M61.69,11.35c-.21-.23-.2-.58.03-.8.23-.21.58-.2.8.03.21.23.2.58-.03.8s-.58.2-.8-.03Z"/>
            <path class="cls-2" d="M92.21,45.82c-.14.28-.02.62.26.75.28.14.62.02.75-.26.14-.28.02-.62-.26-.75-.28-.14-.62-.02-.75.26Z"/>
          </g>
          <g>
            <path class="cls-1" d="M76.49,67.11c.51-.15.42-.41.51-.7-.39-.39.71.2.1-.33.12-.12-.1-.43.4-.29.15-.25.29-.5.24-.79-.25-.1-.09-.1.11-.11-.25-.24-.15-.43-.07-.67-.04-.05-.07-.1-.09-.15l.13.29c-.3-.25-.32-.75-.73-.91.06-.16.31-.45-.16-.21-.08-.11.15-.46-.23-.33.32-.42-.37-.15-.27-.39.3-.25.17-.26.05-.25-.26.12-.21.04-.15-.06-.4.07.14-.52-.36-.38-.04-.39-.31-.58-.52-.83.29-.28-.09-.15-.14-.22-.03-.33-.19-.58-.39-.82-.36.08.15-.38-.12-.36-.07-.25-.74-.2-.34-.73-.89.34.49-.67-.48-.27.29-.34-.19-.22-.27-.33.29-.24.15-.26.03-.26-.24.11-.22.02-.15-.08.35-.36-.64.06.03-.48l-.29.02c0-.32-.21-.51-.32-.75-.29.11-.2-.04-.02-.21-.26.02,0-.3-.47-.15.76-.86-.65-.45-.24-1.11-.17-.12.01-.41-.48-.34.15-.24.05-.38-.16-.41-.07-.34-.24-.61-.41-.9-.39.15-.17-.05-.09-.16-.31,0,0-.36-.3-.34.01-.3-.21-.52-.17-.85-.75.3.2-.3-.29-.16-.12-.04.07-.31-.37-.16.62-.73-.63-.46-.31-1.03-.13-.25-.68-.26-.38-.79-.36.06.12-.4-.37-.26.17-.26-.17-.17-.05-.4.11-.25-.54-.02-.32-.33-.25-.36-.46-.84-.85-1.12.4-.36-.34.06-.04-.23-.33-.05-.17-.47-.4-.6-.53.23.23-.39-.3-.17.26-.5-.37-.43-.45-.69.54-.47-.4.05.04-.37.13-.18-.41.15-.17-.1-.43-.05-.14-.67-.67-.63,0-.28-.3-.31-.27-.6-.33-.01-.19-.43-.45-.54-.29-.17-.59-.38-.61-.82-.25.04-.13-.27-.47-.15.03-.33-.2-.42-.34-.59-.18.13-.22.09-.15-.03l.11-.14c-.13-.15-.57.05-.33-.46-.59.24-.35-.37-.67-.41-.23.09-.12-.21-.25-.24-.16.05.09-.35-.25-.11-.41.12-.09-.6-.51-.46.06-.33-.16-.4-.37-.45.25-.44-.54.28-.31-.16-.04-.46-.7-.27-.65-.81l-.47-.09c.36-.46,0-.19-.05-.25-.36.01-.31-.44-.58-.51.12-.28-.28.02-.17-.27-.33.09-.42-.11-.5-.32-.19,0-.1-.34-.45-.19.28-.46-.15-.2-.23-.3-.12-.11.01-.51-.37-.33.02-.34-.43-.19-.37-.57-.45-.14-.58-.53-1.01-.68.15-.3-.35.04-.13-.36-.65.53.2-.54-.37-.11.46-.66-.47.17-.18-.3,0-.41-.7-.02-.52-.61-.24.02-.2-.29-.55-.18.12-.25,0-.24-.14-.23-.28-.12-.27-.53-.54-.64-.22.16-.23.05-.2-.07-.06-.33-.29-.4-.53-.52.14-.51-.75,0-.43-.68-.44.28.14-.47-.41-.07-.07-.44-.34-.61-.67-.8-.18.04-.16-.12-.2-.22.04-.19-.13-.25-.2-.35-.32.12.02-.4-.4-.2.06-.41-.32-.52-.46-.77-.34.18-.11-.13-.17-.2l-.39-.46c-.41.25.07-.21-.05-.2-.32.05-.2-.25-.36-.31.39-.48-.53.05-.19-.38-.31-.11-.36-.45-.58-.64-.47-.1-.17-.74-.73-.78.43-.55-.44-.33-.35-.7-.03-.19.06-.48-.42-.42.29-.44-.09-.53-.12-.8.08-.07.28-.15.46-.23,1.21-.42.13.27.88.07-.66.57.39.28.08.68.02.29.51.37.43.71.34-.16.06.09.09.13.3.03-.09.54.4.44-.23.69.83.48.63,1.16.63-.42.07.12.2.11.05.18,0,.45.44.29-.23.33,0,.35.31.23-.35.55.36.18.11.66.33-.11-.02.41.42.22l.62.59c-.14.24-.02.24.12.24.12.11-.11.56.38.3-.1.7.58.61.77,1.03.29-.06.16.33.36.36-.08.17-.02.2.2.07.13.21.13.52.61.37-.07.21-.36.69.11.33l.11.35c.25-.15,0,.29.33.07.94.96,1.75,2.17,3,2.78-.05.38.51.09.37.57l.18-.08.23.44c.35-.11.37.18.55.25.12.37.53.45.65.81-.08.3.66-.29.38.22.54.22.5.99,1.28.92-.18.36.24.12.23.3-.33.61.57-.08.29.5.02.19.42.04.36.32.26-.03.28.27.55.26.11.29.38.55.71.67-.16.41.27.19.3.42.38.56,1.14.81,1.4,1.47-.18.22-.07.21.04.18.33-.17.19.11.14.29.12-.02.23-.04.06.2.38-.13.33.11.56.1.17.09.09.38.28.47-.47.47.51-.26.05.2.38-.17.09.22.28.2.19.24.37.48.55.73l-.11.15c.3.3.64.54.82.91.33-.07-.12.34.32.19-.1.27.29.25.1.6.51-.04-.16.72.57.54.13.19.28.42.4.61-.31.28.12.09.04.22.7.59.77,1.56,1.45,2.16,0,.29.24.49.25.78.28-.08.25.05.2.17.02.15-.12.44.3.36-.25.38.26.36.25.62.54-.24,0,.12.08.14.28.21.05.74.56.8-.01.38.3.64.56.85-.32.29.09.16-.08.37-.11.19.46.01.17.3.68-.28-.19.35.37.15l-.1.14c.25.05.19.29.1.53.5-.22.24.03.27.11,0,.26.29.34.25.62.28.2.37.5.54.76-.23.43.63.25.4.69.12.2.26.43.38.62.15.04.28.09.09.32l.39.3c-.19.24.11.18.09.31.18.05.25.17.22.36.34.11.23.5.35.74.34-.06-.08.4.38.27-.36.42.44.1.18.45.27-.04-.3.47.19.29.08.12.03.36.46.24-.25.45.14.49.2.71-.07.27.58.04.25.49.35-.07.12.29.43.26-.24.32.13.16.19.24.05-.01.08-.01.11,0l.15.34c.16.21-.4.45-.31.64.58.26-.05.53.07.81-.33.42-.14,1.2-.76,1.32.5.53-.44.16-.12.54-.01.13-.2.18-.31.28-.36-.03-.96-.27-1.03-.37Z"/>
            <path class="cls-2" d="M46.65,24.8c-.13-.28,0-.62.28-.75s.62,0,.75.28c.13.28,0,.62-.28.75-.28.13-.62,0-.75-.28Z"/>
            <path class="cls-2" d="M76.57,67.21c-.09.3.09.61.39.7.3.09.61-.09.7-.38.09-.3-.09-.61-.38-.7-.3-.09-.61.09-.7.38Z"/>
          </g>
          <g>
            <path class="cls-1" d="M84.09,56.34c.51-.1.41-.38.49-.68-.4-.37.73.15.09-.35.12-.14-.14-.39.36-.3.1-.23.12-.5-.01-.81-.27-.02-.12-.08.07-.15l-.02-.02.13.26c-.37,0-.52-.29-.62-.56-.51-.17-.49-.85-1-1.02.05-.17.28-.47-.18-.22-.09-.11.12-.48-.26-.33.29-.44-.38-.14-.3-.4.29-.27.15-.28.03-.26-.25.13-.21.05-.15-.06-.41.08.1-.55-.4-.38-.07-.4-.36-.59-.6-.83.27-.3-.11-.15-.16-.23-.06-.33-.24-.59-.47-.83-.36.1.11-.4-.15-.37-.1-.26-.77-.17-.42-.74-.87.4.43-.71-.51-.26.26-.37-.22-.22-.31-.33.27-.26.13-.28,0-.27-.24.12-.22.03-.16-.07.32-.38-.65.09-.02-.49l-.3.04c-.03-.33-.27-.52-.4-.76-.28.12-.21-.03-.04-.21-.26.02-.03-.31-.5-.15.71-.9-.69-.47-.32-1.16-.18-.13,0-.43-.5-.37.14-.25.04-.4-.17-.44-.08-.36-.26-.65-.43-.95-.39.15-.17-.05-.1-.17-.31,0,0-.37-.31-.36,0-.31-.23-.54-.2-.88-.74.32.18-.32-.3-.16-.13-.04.05-.32-.39-.15.58-.78-.66-.45-.39-1.04-.16-.25-.7-.2-.47-.75-.34.12.05-.43-.42-.19.12-.29-.21-.13-.14-.39.05-.28-.53.11-.4-.26-.35-.29-.7-.71-1.17-.88.28-.46-.31.15-.12-.21-.34.05-.32-.41-.59-.47-.43.38.08-.45-.35-.07.07-.57-.5-.3-.69-.54.35-.62-.38.16-.1-.38.07-.22-.36.26-.21-.05-.46.05-.36-.63-.88-.47-.08-.28-.39-.25-.45-.54-.34.05-.31-.39-.6-.46-.34-.12-.7-.28-.82-.73-.25.08-.19-.26-.52-.08-.04-.34-.29-.4-.47-.56-.16.15-.21.11-.17-.01l.09-.15c-.16-.14-.59.11-.42-.43-.58.3-.42-.34-.76-.35-.23.11-.16-.21-.29-.22-.16.06.05-.36-.28-.09-.42.15-.16-.61-.58-.44.03-.34-.21-.4-.43-.44.22-.46-.53.31-.34-.14-.09-.47-.74-.25-.74-.82l-.48-.08c.32-.49-.02-.2-.07-.26-.37.02-.35-.45-.63-.52.1-.29-.28.02-.19-.27-.33.1-.44-.11-.53-.33-.19,0-.12-.36-.47-.19.25-.48-.17-.21-.26-.31-.13-.11-.02-.53-.4-.35,0-.35-.45-.21-.41-.6-.46-.15-.61-.57-1.07-.73.14-.31-.36.02-.14-.38-.66.52.19-.55-.39-.12.47-.66-.48.15-.2-.32,0-.42-.73-.07-.54-.66-.25,0-.21-.31-.56-.22.13-.25,0-.25-.14-.25-.29-.15-.27-.57-.54-.7-.23.14-.24.03-.21-.09-.05-.34-.28-.44-.53-.59.16-.51-.77-.07-.42-.74-.47.25.16-.47-.42-.11-.05-.46-.32-.66-.66-.89-.18.03-.16-.14-.2-.24.05-.19-.13-.27-.19-.38-.33.1.03-.41-.4-.25.07-.42-.31-.57-.44-.84-.35.15-.11-.15-.17-.23l-.37-.53c-.44.21.09-.21-.04-.21-.33.02-.19-.28-.35-.37.42-.45-.54-.01-.17-.42-.31-.15-.33-.5-.55-.73-.47-.16-.13-.78-.69-.88.46-.53-.43-.38-.32-.74-.02-.2.07-.49-.41-.45.3-.43-.09-.54-.12-.81.08-.07.28-.16.45-.24,1.21-.44.14.29.89.09-.66.58.4.33.1.74.02.3.51.44.42.79.35-.13.05.1.08.15.3.07-.12.56.39.51-.28.69.81.6.57,1.28.67-.36.06.13.2.14.04.19-.04.46.42.35-.26.31-.03.36.29.27-.39.52.36.23.08.69.34-.08-.04.42.42.26l.61.66c-.15.24-.03.25.12.26.12.12-.13.57.38.35-.13.71.57.69.75,1.13.3-.04.15.36.35.4-.08.17-.03.21.2.09.13.22.11.55.61.44-.08.21-.4.67.1.35l.1.37c.26-.13-.01.29.33.09.92,1.06,1.78,2.31,3.08,2.96-.04.39.52.1.41.59l.18-.08.26.45c.35-.12.39.19.57.25.15.38.57.45.72.83-.06.32.65-.31.4.21.56.21.59,1.01,1.38.91-.15.38.25.11.26.3-.27.64.58-.11.35.49.04.19.44.02.41.31.27-.04.32.26.6.23.14.29.46.53.81.61-.11.43.31.17.36.39.48.52,1.29.66,1.69,1.28-.14.25-.02.23.08.17.3-.22.22.08.2.26.12-.04.22-.08.1.19.35-.2.35.05.58,0,.19.05.18.36.39.41-.34.56.44-.38.1.19.33-.26.14.2.33.14l.75.57-.06.18c.39.21.79.32,1.11.63.3-.17,0,.37.38.1,0,.3.37.16.31.56.48-.18.09.75.74.37.19.16.41.35.6.51-.22.35.15.06.11.22.89.42,1.24,1.47,1.97,2.07.03.3.29.5.32.81.28-.09.26.05.21.17.03.15-.09.46.33.38-.23.41.28.38.28.67.53-.25,0,.12.09.15.29.23.07.78.58.86,0,.39.32.68.59.9-.32.29.1.17-.07.38-.11.2.46.02.19.31.67-.29-.18.36.38.15l-.1.14c.26.05.2.29.13.54.5-.24.25.03.28.11.02.27.33.34.31.63.3.2.42.5.62.76-.19.45.67.22.48.69.14.2.3.43.44.63.16.04.29.07.13.33l.42.29c-.17.25.13.18.12.32.18.05.27.17.26.37.35.1.28.52.43.76.34-.07-.05.42.41.27-.33.45.46.09.22.46.27-.05-.27.5.21.29.09.13.06.38.49.24-.22.47.19.5.26.74-.05.29.59.03.29.5.35-.08.14.3.46.26-.23.33.14.16.21.24.43-.11,0,.56.23.64.36-.16.39.02.44.18l.15.3c-.03.11-.06.21.02.3-.1.27,0,.56-.03.9-.02.35-.17.66-.47.73.52.52-.44.19-.11.58-.02.15-.22.23-.35.36-.36-.05-.93-.34-1.01-.44Z"/>
            <path class="cls-2" d="M49.14,13.96c-.14-.28-.02-.62.26-.75s.62-.02.75.26c.14.28.02.62-.26.75s-.62.02-.75-.26Z"/>
            <path class="cls-2" d="M84.16,56.43c-.11.29.04.62.33.72.29.11.62-.04.72-.33.11-.29-.04-.62-.33-.72-.29-.11-.62.04-.72.33Z"/>
          </g>
        </g>
        <g>
          <path class="cls-1" d="M131.06,146.51c.13-.79-.26-1.22-.56-1.85-.6-.09.48-.77-.37-.76-.11-.41-.59-.69-.27-1.24-.31-.8-.62-1.56-1.14-2.28-.3.01-.23-.19-.11-.39-.56-.45-.84-1.15-1.07-1.8-.77-.87-.95-2.18-1.74-3.04,0-.28.19-.65-.37-.58-.19-.29-.07-.83-.57-.86.19-.61-.65-.6-.67-1.03.27-.3.06-.43-.1-.48-.3.06-.28-.07-.26-.24-.55-.15-.18-1.01-.81-1.07-.17-.42-.4-.79-.64-1.13-.27-.32-.56-.62-.85-.94.18-.4-.29-.36-.43-.54-.36-.69-.85-1.31-1.4-1.92-.47-.02-.16-.71-.54-.82-.18-.29-.51-.49-.78-.73-.3-.23-.54-.49-.53-.93-1.01.3,0-1.12-1.07-.74.07-.55-.57-.53-.81-.77.18-.35-.07-.45-.26-.5-.25.12-.32-.06-.32-.21.12-.58-.92-.12-.52-.94l-.43-.06c-.37-.64-.97-1.09-1.42-1.59-.31.12-.37-.14-.29-.41-.38-.05-.39-.6-.93-.45.08-1.44-1.57-1.06-1.82-2.18-.43-.26-.56-.76-1.21-.67-.13-.4-.52-.64-.88-.68-.67-.56-1.42-.98-2.15-1.47-.36.25-.35-.08-.42-.29-.49-.02-.58-.65-1.03-.68-.44-.59-1.07-1.11-1.4-1.78-.77.34-.07-.56-.63-.46-.24-.13-.25-.62-.75-.5.11-1.27-1.47-1.24-1.68-2.22-.5-.52-1.39-.64-1.68-1.53-.5.04-.4-.7-1.01-.53-.1-.43-.55-.34-.68-.73-.18-.43-.94-.17-1.02-.7-.96-.77-1.82-1.92-2.67-2.78.3-.48-.48-.11-.28-.52-.56-.33-.67-1.1-1.15-1.5-.6.15-.02-.67-.63-.5-.1-.85-1.03-1.01-1.48-1.62.35-.66-.62-.14-.35-.74.03-.29-.52.06-.39-.3-.8-.4-.93-1.43-1.8-1.73-.27-.56-.82-.84-1.05-1.38-.58-.26-.74-.96-1.31-1.36-.68-.53-1.43-1.17-1.85-2.04-.41-.13-.45-.64-.96-.73-.22-.65-.64-1.08-.95-1.62-.23.04-.31-.1-.26-.26l.12-.14c-.26-.48-.89-.68-.65-1.37-.84-.33-.61-1.2-1.13-1.69-.33-.11-.26-.55-.48-.74-.24-.08-.02-.56-.47-.47-.63-.19-.51-1.18-1.18-1.31-.13-.54-.59-.87-1.01-1.16.16-.55-.81-.03-.69-.62-.39-.88-1.4-1.52-1.37-2.53l-.67-.87c.47-.37-.02-.39-.08-.57-.51-.53-.45-1.32-.83-1.86.14-.36-.39-.36-.27-.76-.46-.29-.64-.79-.8-1.34-.28-.27-.19-.83-.67-1.04.36-.48-.23-.63-.34-.93-.18-.4,0-.98-.53-1.2.01-.62-.61-.99-.6-1.63-.71-.86-1-1.84-1.69-2.73.16-.38-.52-.42-.26-.87-.88.13.19-.77-.59-.72.56-.65-.67-.31-.35-.82-.11-.8-1.06-.92-1.03-1.78-.4-.23-.5-.75-1.04-.88.05-.34-.16-.44-.4-.55-.58-.48-.86-1.22-1.41-1.72-.29.06-.39-.17-.41-.36-.3-.73-.67-1.12-1.15-1.6-.04-.82-1.25-.76-1.13-1.72-.57.11-.08-.75-.76-.51-.42-.9-1.04-1.38-1.78-2.11-.28-.1-.36-.4-.49-.64-.05-.34-.37-.65-.54-.92-.45-.1-.18-.78-.74-.84-.11-.76-.75-1.4-1.09-2.04-.43.02-.25-.39-.37-.58l-.87-1.32c-.49.12,0-.37-.2-.46-.47-.2-.45-.71-.74-1.01.31-.64-.77-.41-.5-1-.53-.55-.76-1.31-1.16-1.96-.71-.71-.52-1.82-1.22-2.56.44-.78-.55-1.3-.38-2.07.01-.51.2-1.07-.2-1.57.51-.64.37-1.41.83-2.05.13-.02.3.11.47.21.47.47.41.58.29.73-.12.14-.31.31.03.56-.47.14-.46.46-.37.74.09.29.24.55.03.84-.08.69.46,1.44.41,2.12.39.01.08.26.13.4.37.4.02,1.13.65,1.42-.07,1.29,1.39,1.91,1.48,3.16.73-.27.18.33.37.44.18.43.25.93.85,1.05-.17.45.2.72.62.79-.24.76.7.77.57,1.5.46.14.19.83.78.91.43.64.85,1.28,1.29,1.89-.1.33.1.46.32.6.25.33.16.99.81.95.32,1.2,1.53,1.67,2.15,2.67.47.17.5.8.86,1.07-.02.26.08.37.39.36.35.55.51,1.18,1.24,1.44-.03.3-.26.9.35.72.13.25.27.5.42.76.35-.03.19.52.63.43.59.67,1.2,1.37,1.75,2.15.56.78.97,1.63,1.41,2.43.85,1.64,1.68,3.23,2.72,4.7,0,.67.77.95.62,1.69l.24.11.34,1.21c.48.3.52.91.79,1.3.19.86.88,1.61,1.08,2.53-.09.47.92.44.55.99.38.62.56,1.29.8,1.93.23.62.53,1.3,1.1,1.65-.17.46.42.46.49.77-.21.79.95.39.84,1.17.18.36.81.46.91.93.46.2.71.78,1.19,1.05.38.67.96,1.55,1.48,2.23-.13.61.46.75.55,1.22.35.8.84,1.54,1.37,2.22.52.66,1.13,1.29,1.63,2-.13.27.06.35.23.37.43-.07.43.34.5.64.2.05.37.09.28.41.54.02.67.43,1.06.58.37.28.52.79.92,1.1-.37.57.64-.14.27.43.49-.07.34.48.65.58l1.59,1.73-.03.23c.8.76,1.55,1.35,2.28,2.22.47.04.18.63.73.59.13.52.71.72.73,1.33.75.26.4,1.42,1.36,1.49.37.47.82,1,1.23,1.4-.17.4.3.22.32.43,1.8,1.3,3.57,2.77,5.38,4.32.36.59.94,1.1,1.28,1.72.33-.05.44.21.48.43.19.31.32.86.85.84.08.7.81.8,1.15,1.29.48-.36.16.21.31.27.71.4,1.22,1.29,2.12,1.37.62.62,1.59,1.04,2.35,1.45-.05.49.41.31.47.68.1.34.75.13.71.62.68-.36.19.62.79.39l.02.24c.47.17.69.63.86,1.07.51-.27.42.14.56.3.34.51.9.78,1.18,1.31.7.49,1.2,1.14,1.79,1.74.16.76,1.3.76,1.47,1.56.42.44.92.97,1.33,1.42.28.15.56.29.51.71l.89.84c-.05.4.34.43.45.72.32.21.56.51.7.89.64.44.85,1.2,1.29,1.78.47.09.27.78.84.83-.2.66.74.55.63,1.12.37.12-.09.8.51.77.22.34.32.81.89.91-.04.77.59,1.18.84,1.73.1.51.93.64.68,1.32.48.22.32.77.76,1.03-.21.43.27.49.4.74.6.29.18,1.12.54,1.55.77.2.57,1.09,1.02,1.53.36,1.17,1.39,2.21,1.36,3.46.83.22.07,1.04.69,1.37.19.36.21.82.32,1.23-.23.34-.9.42-1.06.33Z"/>
          <path class="cls-2" d="M48.94,30.97c.16-.27.51-.35.77-.19.27.16.35.51.19.77-.16.27-.51.35-.77.19-.27-.16-.35-.51-.19-.77Z"/>
          <path class="cls-2" d="M131.22,146.6c.13.28.47.4.75.27.28-.13.4-.47.27-.75-.13-.28-.47-.4-.75-.27s-.4.47-.27.75Z"/>
        </g>
        <g>
          <path class="cls-1" d="M45.24,22.42c-.05-1.05-.59-1.68-.9-2.72-.31-.17-.16-.45-.03-.67.13-.24.24-.42-.13-.69.1-.68.08-1.54.83-1.87.69-1.15,1.61-2.07,2.84-2.78.08-.33.42-.28.68-.14.14-.06.31-.11.54-.1.15,0,.29.02.42.05.05,0,.13.02.1,0-.03,0-.02,0-.12,0-.03,0-.28.08-.36.22-.11.18-.09.21-.1.29,0,.03,0,.04,0,.06,0,0-.06-.15-.1-.27-.16-.5-.27-1.03-.33-1.54-.63-1.61-.45-3.66.46-5.38.39-.27.86-.19.79-.82.46-.37,1.16-.35,1.47-.86.4.1.7,0,1.03-.14.33-.13.68-.25.98-.12.14.4.46.35.7.28.23-.24.37-.11.54.04.78-.17,1.19.86,1.94.68.56.38,1.09.71,1.63,1.02l.4.23.19.11s.04.02.05.02c0,0,.01,0-.02,0h-.04s-.09-.02-.13-.02c-.08,0-.19.04-.27.11-.1.07-.15.2-.16.23-.04.14-.02.14-.03.17,0,.03,0,.01-.01-.01l-.07-.18c-.06-.13-.12-.31-.17-.46.28-.43-.16-.71-.21-1.09.04-1.23.21-2.44.74-3.64-.08-.63.78-.73.96-1.22.4-.34.8-.83,1.45-1.08.63-.23,1.3-.16,1.73.25.44-.39.73-.11.97.16.24.27.45.53.94.18.33.6,1.07.43,1.53.64.01.42.37.49.64.51.23-.18.43,0,.52.17.21.65,1.19-.04,1.2.91l.57-.02c.87.6,1.85.98,2.73,1.44.32-.18.54.1.6.41.5,0,.84.61,1.41.38.68,1.6,2.53.79,3.55,1.94.72.21,1.14.72,1.99.63.36.46.96.78,1.47.91,1.03.78,2.01,1.52,3.02,2.28.42-.2.45.18.57.42.6.12.85.84,1.42.9.71.65,1.77,1.24,2.47,2,.77-.43.35.65.98.5.35.14.61.71,1.15.54.24.74.85,1.08,1.49,1.37l.48.22c.13.05.19.06.28.06.18.02.35.04.54.05.28-.2.13-.33.04-1.03-.08-.57-.09-1.16.16-1.73-.35-.56.31-1.07-.16-1.67.31-.47.02-.96.34-1.45.33-.52-.13-1.37.48-1.8.81-1.66,2.57-3.16,4.57-3.47.18.25.32.16.48.08.15-.09.34-.19.48.04.52-.05,1.08.18,1.5.56.44.39.69.81,1.03,1.14.71,0,.15.89.83.91.16,1.19,1.13,1.81,1.61,2.8-.44.66.68.47.35,1.09-.04.35.59.16.43.55.48.46.74,1.05,1.05,1.62l-.04-.05c.31.44.67.86,1.17,1.11.44.75,1.17,1.21,1.58,1.92.78.45,1.13,1.34,1.92,1.94.95.79,2.01,1.72,2.74,2.84.53.22.72.85,1.35,1,.45.79,1.12,1.3,1.71,1.94.24-.06.39.1.41.29l-.06.19c.53.56,1.33.72,1.45,1.6,1.11.29,1.35,1.4,2.2,1.99.45.13.58.7.93.94.32.11.26.7.77.62.86.31,1.06,1.52,1.91,1.76.32.68.98,1.16,1.57,1.58-.03.65.97.16.99.83.73,1.13,2.15,1.55,2.81,2.77.44.29.87.59,1.29.92-.27.56.26.48.43.71.88.62,1.18,1.71,1.77,2.47-.04.48.55.54.52,1.07.59.47.89,1.2,1.16,1.92.35.38.41,1.1,1,1.45-.27.62.4.88.59,1.33.28.59.17,1.36.76,1.79.05.86.72,1.59.66,2.5.65,1.53.72,2.95,1.22,4.51-.24.43.42.83.06,1.31.9.29-.38.95.4,1.26-.7.58.61.72.2,1.25-.03,1.08.99,1.8.72,2.95.34.58.26,1.31.71,1.92-.19.37-.04.65.14.96.35,1,.35,2.08.74,3.04.31.12.33.44.3.69.09,1.03.45,1.81.73,2.8-.27,1.07.82,1.96.26,3.01.56.32-.28.95.46,1.19,0,1.35.56,2.37,1.32,3.5.3.22.39.61.56.96.08.45.47.94.69,1.34.52.26.29,1.08.91,1.34.16,1.05.94,2.03,1.44,2.95.48.06.35.55.53.83.41.63.84,1.24,1.29,1.85.53-.09.11.48.35.63.58.32.71.98,1.12,1.39-.16.8.99.59.87,1.32.76.73,1.34,1.64,2.09,2.46,1.09.84,1.4,2.31,2.55,3.01.03,1.11,1.38,1.27,1.87,2.11.42.52.83,1.23,1.58,1.35.31.96,1.2,1.42,1.78,2.14,0,.15-.17.28-.3.42-1.23.58-.82-.82-1.77-.69.03-1.18-1.39-1.1-1.65-2.01-.62-.81-1.84-1.44-2.28-2.41-.41.09-.27-.33-.4-.49-.67-.47-.67-1.48-1.5-1.8-.27-.84-.87-1.44-1.51-2.03-.64-.61-1.26-1.25-1.53-2.08-.74.28-.31-.45-.57-.62-.34-.59-.56-1.25-1.28-1.49.07-.56-.43-.96-.94-1.13.07-.97-.99-1.15-.99-2.08-.55-.28-.36-1.15-1.03-1.4-.28-.49-.56-.98-.82-1.48-.25-.47-.52-.94-.8-1.41.07-.41-.17-.64-.44-.89-.33-.53-.27-1.35-1.01-1.6-.18-.9-.54-1.64-.86-2.44-.32-.79-.58-1.61-.63-2.46-.34-.58-.06-1.35-.27-1.95.14-.29.09-.51-.2-.71-.08-.89-.09-1.73-.77-2.51.09-.41.48-1-.18-1.2l-.18-1.25c-.36-.23,0-.78-.46-1.01-.16-.64-.31-1.28-.43-1.94-.11-.63-.25-1.26-.4-1.89-.3-1.26-.67-2.54-.94-3.86-.45-2.63-.86-5.2-1.77-7.55.06-.89-.75-1.46-.65-2.42l-.27-.2c-.16-.56-.35-1.12-.55-1.68-.58-.47-.77-1.27-1.17-1.82-.48-1.23-1.29-2.34-1.78-3.52-.05-.63-1.12-.56-.94-1.27-1.29-1.48-2.35-3.14-4.22-4.05-.08-.59-.78-.6-1.02-1.01-.05-.96-1.32-.67-1.41-1.59-.32-.47-1.12-.69-1.37-1.26-.62-.3-1.1-1.02-1.75-1.37-.68-.83-1.69-1.88-2.63-2.63-.18-.76-.91-.85-1.28-1.43-1.68-1.91-3.81-3.5-5.42-5.44.09-.31-.17-.44-.38-.5-.51,0-.62-.51-.76-.88-.26-.11-.47-.19-.44-.56-.66-.13-.92-.66-1.43-.93-.51-.42-.81-1.07-1.36-1.53.3-.64-.72.06-.43-.58-.57,0-.53-.67-.92-.86l-1.21-1.35-.03-.04h0c-.3-.46-.59-.92-.88-1.38l.04-.27c-.9-1.32-1.68-2.5-2.43-3.88-.51-.23-.19-.85-.81-.96-.09-.32-.32-.58-.55-.82-.24-.27-.4-.4-.57-.72-.45,0-.75-.21-1.19-.34-.42-.13-.94-.11-1.22.37-.73.22-1.49.79-2.01,1.38-.46-.1-.28.42-.52.52-.78,1.29-.94,2.85-1,4.46-.03.8,0,1.61.04,2.43l.02.3c0,.09.02.2.02.37-.01.31-.13.63-.33.87-.4.49-1.01.7-1.61.64-.17-.04-.33-.11-.49-.19-.16-.09-.3-.19-.38-.26-.21-.15-.42-.3-.63-.46-.42-.31-.84-.62-1.2-.97-.37.08-.63-.22-.79-.47-.39-.35-.82-1-1.46-.96-.44-.82-1.39-.91-2.06-1.5-.48.39-.32-.28-.53-.35-1.12-.59-1.91-1.79-3.08-2.16-.87-.9-2.16-1.6-3.23-1.98-.11-.53-.62-.3-.85-.67-.31-.35-.98,0-1.22-.52-.62.53-.61-.61-1.21-.23l-.17-.24c-.68-.07-1.25-.52-1.73-.99-.49.36-.61-.11-.86-.27-.7-.52-1.53-.7-2.2-1.23-1.15-.41-2.17-.97-3.26-1.51-.68-.81-2.01-.59-2.72-1.37-.77-.34-1.72-.7-2.48-.74-.39.09-.62.2-1.02.07-.4.25-.76.65-1,1.08-.45.11-.38.58-.6.88-.07.48-.2.94-.39,1.43.11.98-.12,1.89.26,2.91.03.03.06.07.08.12.02.06.06.1.03.32,0,.08-.17.36-.35.39-.11.04-.16.03-.21.03-.05,0-.11-.01-.12-.01-.12-.03-.16-.06-.22-.08-.19-.11-.25-.19-.37-.3-.21-.2-.44-.38-.78-.31-.26-.77-1.2-.32-1.53-.91-.47.05-.6-.81-1.17-.45-.5-.16-1.12-.44-1.6,0-.37-.2-.82-.2-1.19-.03-.38.14-.69.42-1.02.61-.31.13-.5.45-.6.72-.12.28-.2.53-.56.71.13.58-.32,1.04-.06,1.65-.39.37.04.76.1,1.12.49.64-.07,1.51.28,2.24.1.07.18.15.25.23.07.1.13.14.19.42,0,.04.07.27-.2.55-.06.06-.14.1-.22.13-.07.02-.1.03-.15.03-.12.01-.12,0-.18,0-.14-.02-.2-.04-.25-.06l-.28-.1c-.11-.11-.63-.04-.9.23-.73.28-1.35.94-1.78,1.63-.44.7-.75,1.41-1.04,2.09.33.33.27.59.23.93-.04.33-.06.72.28.98.24.5.37,1.13.6,1.7-.17.43-.87.47-1.06.34Z"/>
          <path class="cls-2" d="M162.79,104.12c.22.22.23.57.01.8-.22.22-.57.23-.8.01-.22-.22-.23-.57-.01-.8s.57-.23.8-.01Z"/>
          <path class="cls-2" d="M45.44,22.55c.15.27.49.37.77.22.27-.15.37-.49.22-.77-.15-.27-.49-.37-.77-.22-.27.15-.37.49-.22.77Z"/>
        </g>
        <g>
          <path class="cls-1" d="M102.62,79.7c.29-.43,0-.57-.17-.82-.54.09.56-.49-.22-.3-.03-.18-.44-.24-.03-.58-.13-.35-.24-.71-.46-1.04-.27.03-.14-.08.03-.19-.36-.19-.37-.54-.34-.86-.39-.42-.07-1.06-.44-1.5.12-.14.47-.29-.05-.3-.02-.16.33-.38-.07-.46.47-.25-.26-.35-.07-.54.38-.09.27-.17.15-.22-.29-.02-.2-.07-.1-.14-.39-.15.36-.45-.15-.58.14-.41-.01-.75-.09-1.11.39-.12-.01-.2-.02-.3.13-.34.11-.69.05-1.04-.36-.13.31-.29.08-.43.06-.29-.54-.64.09-.93-.94-.21.77-.35-.26-.56.43-.15-.04-.34-.05-.49.37-.04.27-.15.17-.23-.26-.05-.19-.13-.08-.17.49-.12-.56-.36.3-.43l-.26-.17c.19-.3.13-.63.18-.92-.3-.09-.14-.17.11-.2-.21-.16.18-.29-.28-.46,1.12-.27-.23-.86.5-1.18-.05-.23.27-.36-.15-.64.27-.11.29-.31.15-.48.17-.36.22-.72.29-1.09-.39-.14-.1-.16.04-.21-.23-.21.24-.32,0-.52.21-.26.19-.61.44-.87-.76-.26.35-.13-.11-.35-.07-.13.26-.22-.17-.42.96-.18-.13-.89.51-1.14.09-.31-.28-.76.32-.96-.29-.24.39-.23-.05-.52.31-.07.02-.28.28-.36.27-.11-.34-.46.05-.53.11-.5.36-1.04.34-1.58.54.06-.26-.24.15-.21-.17-.32.28-.5.24-.78-.51-.27.46-.11-.05-.38.57-.17.12-.62.28-.91.71.1-.27-.32.34-.25.23-.02-.37-.25-.02-.23-.2-.44.48-.61.16-1.07.24-.19.11-.49.37-.66-.16-.32.27-.46.24-.78,0-.39.05-.82.43-1.1-.16-.22.18-.28-.09-.54.31-.16.28-.43.35-.66-.2-.09-.18-.15-.05-.16l.18.02c.07-.22-.34-.49.22-.59-.53-.38.11-.55-.05-.86-.22-.14.09-.25.04-.38-.14-.1.33-.18-.07-.29-.36-.25.41-.51.01-.74.28-.2.18-.44.07-.63.49-.16-.58-.18-.12-.36.28-.42-.35-.71.01-1.14l-.33-.38c.56-.19.1-.18.1-.26-.31-.21-.03-.58-.23-.81.23-.19-.25-.14-.02-.35-.33-.09-.32-.33-.31-.57-.17-.09.05-.39-.34-.4.44-.32-.07-.27-.11-.4-.07-.16.19-.51-.24-.49.13-.33-.35-.37-.19-.73-.4-.31-.43-.76-.85-1.05.21-.27-.36-.07-.06-.41-.76.36.3-.51-.36-.22.58-.56-.51.05-.14-.36.06-.43-.72-.2-.45-.78-.25-.05-.17-.36-.54-.34.15-.24.03-.26-.12-.28-.27-.2-.21-.63-.47-.82-.25.11-.25,0-.2-.13-.02-.36-.25-.51-.49-.69.2-.51-.77-.17-.37-.83-.48.21.18-.47-.42-.16-.03-.49-.3-.72-.63-1-.19.01-.16-.16-.19-.27.06-.2-.12-.3-.19-.42-.34.08.04-.43-.4-.28.08-.44-.32-.61-.46-.9-.36.15-.12-.16-.18-.24l-.4-.56c-.44.21.08-.22-.05-.23-.33,0-.21-.3-.37-.4.41-.47-.55-.03-.19-.45-.32-.17-.36-.54-.59-.79-.48-.19-.15-.84-.73-.97.46-.54-.44-.43-.33-.81-.02-.22.07-.52-.41-.51.31-.44-.08-.58-.11-.88.08-.07.29-.14.46-.22,1.23-.36.13.32.9.17-.68.56.4.38.08.78.01.32.51.49.43.86.35-.12.06.11.08.16.31.09-.11.58.41.55-.26.72.84.66.62,1.37.67-.36.07.14.21.15.05.2-.02.48.45.38-.25.32-.01.38.32.3-.38.54.38.26.11.73.35-.07-.02.44.44.3l.63.76c-.15.24-.03.26.12.28.12.14-.14.59.38.41-.14.74.57.79.73,1.29.3,0,.13.4.34.47-.1.17-.04.22.2.13.12.26.08.6.59.56-.09.21-.45.65.08.39l.07.41c.28-.09-.04.31.33.16.84,1.29,1.58,2.75,2.65,3.93-.15.38.48.32.21.77h.2s.08.57.08.57c.38.06.29.38.43.55-.03.44.31.76.25,1.2-.22.24.73.14.23.45.36.59-.12,1.27.53,1.79-.37.19.11.29-.02.45-.65.27.48.4-.13.67-.11.17.26.39.02.58.2.2-.02.46.16.69-.16.32-.19.76-.11,1.15-.43.15,0,.39-.18.57-.25.73-.16,1.64-.62,2.28-.28-.05-.22.06-.14.15.3.22,0,.25-.19.3.08.11.14.19-.15.17.3.28.07.37.19.58,0,.21-.29.32-.26.55-.65-.13.5.3-.15.17.35.23-.14.22-.02.38l-.3.96h-.19c-.07.48-.04.91-.23,1.35.26.22-.35.16.04.41-.28.13-.02.43-.42.53.34.39-.67.42-.07.88-.07.25-.15.55-.22.79-.41-.04,0,.17-.15.2,0,1.02-.69,1.84-.63,2.85-.2.24-.17.58-.37.83.26.13.15.22.03.28-.08.14-.39.3-.01.52-.45.16-.04.5-.23.73.56.16-.07.11-.03.18.07.38-.45.69-.11,1.11-.26.33-.19.79-.13,1.15-.44.03-.03.21-.3.28-.21.09.34.33-.06.39.7.21-.37.18.19.39l-.17.05c.17.22-.04.39-.25.55.54.14.17.19.14.28-.15.24.03.5-.17.73.11.37,0,.7,0,1.05-.43.26.39.62-.04.9,0,.26-.01.56-.01.82.1.13.19.24-.09.37l.18.51c-.28.12,0,.23-.08.35.13.15.13.31.02.48.24.3-.04.62-.04.93.33.12-.26.35.21.47-.52.22.35.34-.04.54.26.1-.49.31.04.39.02.17-.14.38.3.49-.43.31-.09.56-.14.81-.17.24.51.33.03.62.35.11-.02.36.29.48-.36.2.06.23.08.34.43.12-.25.52-.08.72.62.05.13.5.4.68-.06.55.68.87.45,1.48.73-.07-.1.5.41.53.11.14.05.38.05.57-.29.23-.91.4-1.03.39Z"/>
          <path class="cls-2" d="M94.26,21.98c-.12-.29.02-.62.31-.74.29-.12.62.02.74.31s-.02.62-.31.74-.62-.02-.74-.31Z"/>
          <path class="cls-2" d="M102.74,79.71c.13.28.46.41.74.29.29-.13.41-.46.29-.74s-.46-.41-.74-.29c-.29.13-.41.46-.29.74Z"/>
        </g>
        <g>
          <path class="cls-1" d="M104.22,15.87c0-.45-.06-.24-.12-.18-.1.52.06-.71-.07.08-.02-.04-.12.3-.06-.19-.06-.01-.12-.04-.2.05-.06.26-.04.1-.01-.09-.11.27-.15.18-.17.05-.15.23-.11-.24-.27.01.02-.14.12-.5-.05-.01-.03,0,.07-.39-.07-.02.12-.48-.13.19-.09-.03.12-.37.07-.28.03-.18-.1.27-.08.18-.05.07-.15.34.07-.4-.12.06,0-.19-.09-.09-.17-.07.13-.37-.03-.01-.05-.02,0-.15-.05-.18-.12-.15-.16.32.08-.31-.03-.11-.01-.08-.32.44-.1-.14-.43.84.27-.71-.19.2.16-.4-.07.02-.1.02.15-.34.09-.25.04-.16-.12.24-.1.17-.06.07.2-.44-.31.5.06-.27l-.14.23c.03-.17-.06-.11-.09-.15-.15.26-.1.13.01-.09-.13.19.03-.15-.22.26.47-.98-.29.23,0-.39-.07.06.06-.22-.21.16.1-.22.07-.23-.03-.1,0-.12-.05-.14-.1-.17-.23.34-.09.09-.03-.02-.17.21.05-.18-.12.03.05-.16-.05-.11.02-.3-.46.65.15-.28-.14.12-.07.07.08-.2-.19.17.46-.78-.29.18-.02-.32-.03-.04-.35.3-.08-.16-.22.26.15-.29-.17.1.15-.24-.07.02.05-.18.12-.2-.31.32-.12.02-.07-.04-.09-.16-.26-.09.32-.43-.22.23.03-.1-.19.17,0-.15-.1-.08-.37.43.23-.34-.14.09.28-.41-.12,0-.12-.1.44-.55-.26.25.12-.22.13-.17-.29.31-.08.04-.25.21.1-.29-.23,0,.09-.16-.08-.03.02-.2-.2.16.02-.15-.1-.09-.12.04-.23.06-.08-.19-.16.14.02-.1-.23.13.14-.21.04-.16.02-.2-.15.15-.16.14-.08.05l.12-.13s-.36.27,0-.14c-.44.39-.05-.08-.22.03-.18.15.02-.08-.04-.04-.11.09.2-.25-.1.03-.29.23.22-.33-.09-.09.18-.22.09-.19,0-.14.34-.36-.44.36-.11.02.19-.27-.28.09,0-.26l-.23.11c.42-.4.09-.11.09-.13-.22.13.03-.15-.09-.1.2-.2-.17.1.03-.1-.23.16-.19.08-.13-.02-.11.06.11-.17-.17.04.39-.36,0-.07,0-.1-.02-.02.26-.3-.06-.07.18-.2-.16.03.06-.21-.2.07-.08-.12-.28-.06.24-.21-.23.13.1-.16-.67.5.39-.36-.18.06.62-.5-.37.24.04-.1.21-.22-.43.2-.02-.17-.16.08.02-.09-.25.07.2-.17.12-.13.03-.08-.12.02.1-.2-.02-.17-.22.15-.17.09-.09.02.13-.15.03-.13-.08-.11.36-.3-.5.21.07-.22-.44.27.33-.27-.24.08.18-.2.08-.2-.05-.2-.14.07-.05-.01-.03-.05.13-.1.04-.08.04-.11-.29.14.22-.19-.18.01.25-.2.04-.15.06-.22-.33.17-.02-.03-.02-.04l-.05-.1c-.43.21.16-.11.06-.07-.26.1-.03-.05-.12-.04.53-.29-.42.15.04-.11-.18.03-.06-.09-.15-.11-.32.06.2-.22-.23-.12.6-.28-.22-.03.01-.17.06-.06.25-.16-.19-.06.43-.18.12-.14.19-.21.1-.03.31-.08.49-.13,1.24-.31.02.05.76-.14-.8.27.22,0-.21.16-.1.08.26,0,.04.12.35-.13,0,.01,0,.02.22-.06-.32.2.12.05-.51.3.41-.04-.07.26.69-.33,0,.03.09,0-.05.06-.23.18.17,0-.34.19-.18.15.11,0-.53.32.17-.02-.25.24.29-.14-.22.18.19-.02l.13.08c-.22.15-.14.11-.04.07.03.01-.37.29.1.03-.42.35.08.12-.02.26.22-.12-.07.12.05.07-.14.11-.12.11.09-.02-.02.06-.19.22.19,0-.15.12-.59.46-.1.13l-.11.15c.24-.15-.15.15.17-.07.09.2-.03.6.41.53-.22.23.25-.11-.07.2l.14-.1-.09.17c.26-.18.12-.02.2-.04-.11.17.09.08-.02.25-.19.21.52-.4.11,0,.2-.07-.18.41.29.08-.27.28.08-.02,0,.09-.47.49.36-.26-.07.19-.07.11.22-.13.06.06.16-.12.03.06.2-.06-.07.13-.02.18.11.11-.27.31.08,0,0,.12,0,.17.33-.02.24.23-.19.21-.12.16-.04.08.25-.25.07-.03-.02.1.08-.07.15-.13-.04.09.27-.26.16-.1.29-.21.07-.03-.08.17,0,.12-.43.5.39-.41-.04.09.28-.29-.02.08.1-.03l.11.1-.11.14c.1,0,.25-.09.27,0,.22-.23-.15.24.14-.09-.12.2.11-.05-.08.25.31-.32-.26.47.21-.06.03.02.06.05.09.07-.24.33.05-.03-.03.09.27-.13.12.32.4.18-.05.14.05.08,0,.22.17-.23.13-.15.08-.05-.01.06-.13.3.11-.03-.19.36.09,0,.04.13.32-.49-.01.05.02.01.12-.09-.08.33.18,0-.06.19.07.11.18.03-.2.37.03.02-.09.24-.08.18.23-.32.05.03.38-.62-.14.31.17-.19l-.07.14c.12-.16.06.01-.01.19.27-.48.12-.16.12-.14-.03.13.11-.05.05.13.11-.1.12-.02.18,0-.15.39.27-.34.12.06.03.02.07.04.11.05.06-.09.11-.16.01.1l.14-.13c-.1.27.03.01.01.1.07-.11.09-.1.06.03.13-.2.05.1.09.13.13-.29-.06.28.13-.14-.16.51.16-.28.04.11.1-.23-.14.5.05.02.02,0,0,.18.15-.21-.11.45.02.17.03.27-.03.21.18-.41.06.11.11-.3.02.1.12-.15-.09.38.03,0,.05.01.12-.37-.03.38.03.28.16-.56.07.03.14-.15.03.24.2-.32.19.12.13-.7.02.29.11-.16.03-.05.03.11.05.19-.03.35-.11.99-.13,1.09Z"/>
          <path class="cls-2" d="M96.91,9.44c-.08-.3.1-.61.4-.69.3-.08.61.1.69.4.08.3-.1.61-.4.69-.3.08-.61-.1-.69-.4Z"/>
          <path class="cls-2" d="M104.24,15.77c.31.03.59-.19.62-.5.03-.31-.19-.59-.5-.62-.31-.03-.59.19-.62.5-.03.31.19.59.5.62Z"/>
        </g>
      </g>
    </g>
  </g>
</svg>