<?xml version="1.0" encoding="UTF-8"?>
<svg id="_レイヤー_2" data-name="レイヤー 2" xmlns="http://www.w3.org/2000/svg" viewBox="0 0 150 75">
  <defs>
    <style>
      .cls-1 {
        fill: #fff;
      }

      .cls-2, .cls-3 {
        fill: none;
      }

      .cls-3 {
        stroke: #fff;
        stroke-linecap: round;
        stroke-miterlimit: 10;
        stroke-width: 2.38px;
      }
    </style>
  </defs>
  <g id="pc_top">
    <g>
      <rect class="cls-2" width="150" height="75"/>
      <g id="_ロゴ" data-name="ロゴ">
        <g>
          <path class="cls-1" d="M34.96,44.27c-.24.38-.56.59-.97.62-.41.02-.84,0-1.31-.09-.56-.15-1.17-.35-1.81-.62-.65-.27-1.29-.57-1.94-.9-.65-.33-1.29-.7-1.92-1.09-.63-.39-1.22-.78-1.77-1.17-.6-.42-1.21-.88-1.86-1.39-.65-.5-1.27-.99-1.87-1.48-.6-.48-1.17-.93-1.69-1.35-.52-.41-.96-.73-1.33-.94-1.06.51-2.1.96-3.13,1.34-1.03.38-2.02.8-2.97,1.25-.22.1-.55.26-.98.49-.43.22-.87.46-1.33.71-.46.25-.88.5-1.27.73-.4.23-.66.41-.81.55-.38.34-.56.69-.57,1.06,0,.37.04.72.15,1.07.11.34.21.66.29.95.09.29.04.53-.16.72-.12.12-.34.13-.65.03-.31-.1-.65-.25-1.01-.47-.36-.21-.73-.47-1.08-.77-.36-.3-.65-.58-.87-.84-.41-.47-.7-.96-.87-1.47-.17-.51-.24-.99-.22-1.45.02-.46.14-.9.33-1.3.19-.4.46-.74.79-1.01.44-.35.96-.67,1.56-.95.6-.28,1.24-.54,1.91-.78.67-.24,1.36-.49,2.07-.74.71-.25,1.4-.52,2.08-.79.29-.12.58-.24.88-.36.3-.12.59-.25.85-.36.26-.12.48-.22.66-.29.17-.08.27-.13.3-.15.15-.13.19-.31.14-.53-.06-.23-.17-.45-.37-.67-.14-.17-.36-.41-.66-.73-.29-.32-.62-.66-.94-1.02-.33-.36-.65-.71-.93-1.05-.29-.34-.49-.59-.62-.75-.4-.54-.71-1.01-.94-1.42-.22-.41-.36-.78-.41-1.1-.05-.32,0-.61.14-.88.14-.26.38-.51.73-.75.14-.1.32-.07.54.07.21.14.44.33.66.58.22.25.45.53.68.83.22.3.43.57.6.8.14.19.38.48.72.88.34.4.71.81,1.1,1.24.38.43.76.83,1.12,1.21.36.38.61.65.76.83.07.08.15.17.25.27.1.1.22.19.36.26.14.08.3.12.47.12.17,0,.38-.04.61-.13.37-.16.79-.35,1.28-.57.49-.22.99-.44,1.5-.67.51-.23,1-.46,1.47-.68.47-.22.87-.41,1.21-.58.35-.13.7-.3,1.05-.49.35-.2.7-.4,1.04-.61.34-.21.68-.41,1.02-.59.33-.18.67-.32,1-.42.68-.21,1.27-.07,1.78.42.77.75.82,1.47.14,2.22-.42.46-1.03.88-1.83,1.24-1.81.86-3.29,1.56-4.4,2.15-1.12.6-1.83,1.03-2.12,1.33-.32.32-.26.71.19,1.15.55.54,1.07,1.02,1.58,1.47.5.44,1.02.87,1.57,1.29.54.42,1.12.84,1.74,1.28.62.43,1.31.91,2.09,1.42.56.36,1.11.68,1.65.96.53.29,1.04.54,1.49.76.46.23.87.41,1.24.57.36.16.67.29.89.41.15.09.31.17.47.24.15.07.28.15.37.23.09.08.15.17.17.28.02.11-.02.24-.12.39Z"/>
          <path class="cls-1" d="M59.16,54.02c-.04.2-.19.41-.42.61-.24.2-.54.39-.89.56-.36.18-.76.34-1.19.48-.44.14-.87.26-1.31.36-.44.1-.84.17-1.23.23-.38.05-.7.08-.94.09-.45.01-1.04-.03-1.75-.14-.71-.11-1.45-.25-2.2-.43-.76-.18-1.49-.38-2.21-.6-.71-.22-1.31-.43-1.78-.61-.19-.08-.44-.2-.75-.38-.31-.18-.62-.38-.94-.59-.31-.21-.6-.43-.87-.65-.26-.22-.44-.4-.54-.55-.05.49-.13.97-.21,1.45-.08.48-.23.95-.43,1.41-.09.2-.24.43-.44.69-.2.26-.43.51-.69.75-.26.24-.52.46-.79.67-.27.21-.53.36-.78.46-.66.29-1.31.52-1.97.7-.66.17-1.36.28-2.1.32-.75.04-1.57,0-2.45-.09-.88-.1-1.87-.29-2.96-.57-1.16-.31-2.29-.74-3.36-1.27-1.07-.53-2.13-1.17-3.19-1.91-.66-.47-1.16-1.01-1.5-1.62-.33-.61-.52-1.25-.56-1.91-.04-.66.05-1.31.28-1.96.23-.65.56-1.25,1-1.81.11-.14.27-.31.48-.49.21-.18.43-.36.66-.53.24-.17.48-.33.7-.48.23-.15.44-.27.62-.36.52-.25,1.16-.5,1.92-.75.77-.25,1.59-.48,2.49-.69.89-.21,1.82-.39,2.79-.53.97-.15,1.91-.24,2.84-.27.93-.03,1.81.02,2.67.16.86.14,1.63.4,2.33.79.23.13.41.26.53.39.12.13.2.27.26.41.06.14.1.28.14.43.03.14.08.29.14.45.01.08.07.14.15.18.11.06.26.11.46.15.19.04.4.12.61.22.27.13.54.43.81.9.27.46.55.96.85,1.5.29.53.61,1.04.95,1.51.33.47.69.78,1.05.93.41.17.84.34,1.33.51.48.17.97.34,1.47.49.5.15,1,.29,1.49.4.5.12.95.21,1.37.28.11.01.39.04.81.09.42.04.92.09,1.49.13.57.04,1.16.08,1.79.11.63.03,1.21.05,1.75.06.53.01.98.02,1.33.02.35,0,.54,0,.57.01.1.02.17.06.24.11.07.05.1.13.07.22ZM40.27,50.57c.02-.26-.05-.57-.2-.9-.15-.34-.35-.67-.6-1.01-.25-.33-.52-.65-.82-.94-.31-.3-.61-.53-.93-.71-.25-.14-.53-.25-.8-.33-.28-.08-.57-.13-.86-.17-.3-.04-.58-.06-.87-.07-.29,0-.56-.02-.8-.03-.77,0-1.6.15-2.51.43-.91.28-1.79.64-2.65,1.07-.86.43-1.65.9-2.37,1.42-.72.52-1.26,1.02-1.61,1.52-.16.22-.25.47-.28.76-.03.29.01.59.12.89.11.31.28.61.52.91.24.3.54.57.9.81.96.63,1.93,1.08,2.89,1.36.96.27,1.9.4,2.8.38.9-.02,1.76-.18,2.58-.46.82-.29,1.57-.68,2.25-1.16.69-.48,1.3-1.05,1.85-1.7.55-.65,1.01-1.34,1.39-2.08Z"/>
          <path class="cls-1" d="M109.01,51.27c.18.38.14.98-.12,1.83-.56,1.62-1.24,3.09-1.99,4.42-.75,1.33-1.63,2.58-2.63,3.73-.36.41-.77.84-1.24,1.28-.47.44-1,.89-1.6,1.34-1.21.91-2.27,1.47-3.15,1.71-1.17.32-2.34.17-3.46-.44-1.13-.63-2.12-1.41-3-2.32-.44-.47-.89-.95-1.33-1.43-.44-.48-.89-.98-1.35-1.49-.87-1.02-1.52-1.5-2-1.42-.69.11-1.39.66-2.15,1.65-.76,1-1.75,2.45-3.04,4.32-1.28,1.89-2.47,3.3-3.47,4.25-1,.95-1.96,1.43-2.83,1.44-1.3,0-2.17-.41-2.6-1.21-.39-.82-.6-2.18-.63-4.08,0-.96-.01-1.76-.03-2.42,0-.66-.03-1.17-.05-1.54-.04-.75-.37-1.35-.98-1.82-.58,0-1.45.46-2.67,1.37-1.23.91-2.38,1.8-3.41,2.69-1.03.89-2.05,1.76-3.06,2.61-.31.28-.62.54-.92.79-.3.25-.61.51-.94.76-.51.44-.98.81-1.4,1.11-.42.3-.81.55-1.14.75-.64.4-1.35.52-2.12.36-1.42-.31-2.25-1-2.46-2.04-.18-1.09-.11-2.19.17-3.29.1-.38.21-.75.34-1.11.13-.36.27-.71.43-1.05.16-.34.36-.73.58-1.17.23-.44.49-.94.78-1.48.6-1.08,1.03-1.89,1.29-2.42.36-.75.65-1.39.88-1.93.22-.54.37-1,.46-1.37.07-.29.23-.5.49-.65.26-.15.58-.18.96-.1,1.52.32,2.14,1.27,1.85,2.92-.08.43-.2.91-.38,1.44-.18.52-.39,1.06-.64,1.62-.25.56-.51,1.12-.78,1.68-.27.56-.54,1.1-.8,1.61-.57,1.26-.92,2.13-1.01,2.59.54-.22,1.24-.59,2.08-1.14.83-.55,1.82-1.28,2.92-2.21,1.13-.92,2.13-1.76,3.02-2.49.89-.73,1.68-1.36,2.41-1.89,1.45-1.04,2.89-1.54,4.43-1.49.34.01.6.06.78.17.84.52,1.45,1.46,1.84,2.85.2.7.38,1.43.55,2.19.17.76.32,1.59.46,2.47.25,1.7.51,2.55.74,2.54.34,0,.91-.51,1.65-1.51.06-.09.24-.31.49-.67.26-.36.55-.75.85-1.17.3-.42.58-.82.83-1.2.25-.37.42-.63.51-.76,1.07-1.59,2.05-2.87,2.99-3.85.96-1.04,1.92-1.65,2.93-1.81.94-.15,1.64-.03,2.11.39.25.2.52.47.81.82.29.34.61.75.97,1.21.41.57.79,1.08,1.16,1.53.37.45.72.85,1.05,1.21.33.35.69.69,1.11,1,.4.31.87.6,1.4.86,1.05.52,2.12.62,3.19.31,1.17-.34,2.68-1.53,4.32-3.6.82-1.04,1.61-2.15,2.36-3.32.76-1.17,1.49-2.41,2.2-3.73.12-.22.25-.36.4-.43.22-.11.41-.02.55.27Z"/>
          <path class="cls-1" d="M129.58,38.32s.02.02.02.03c.19.2.3.58.34,1.15.04.57.02,1.26-.06,2.08-.08.82-.22,1.73-.44,2.74-.21,1.01-.47,2.04-.78,3.11-.38,1.25-.83,2.5-1.38,3.75-.54,1.25-1.22,2.54-2.02,3.85-1.55,2.59-3.37,4.42-5.25,5.48-2.09,1.17-3.97,1.55-5.57,1.22-1.6-.34-2.89-1.1-3.88-2.22-.98-1.11-1.76-2.35-2.36-3.72-.25-.57-.55-1.51-.9-2.8-.17-.65-.32-1.21-.42-1.68-.11-.48-.16-.87-.19-1.19-.03-.62.19-1.27.66-1.97.47-.73,1.05-1.26,1.76-1.63.39-.2.71-.02,1.01.53.19.37.37.81.52,1.33.15.52.29,1.03.43,1.54.25.96.5,1.81.76,2.54.26.73.51,1.35.77,1.85.57,1.12,1.35,2.12,2.39,2.99,1.06.9,2.21,1.03,3.42.35,1.23-.69,2.48-1.81,3.69-3.36.6-.79,1.16-1.61,1.68-2.48.52-.86,1-1.77,1.43-2.73.46-.98.85-1.92,1.18-2.84.33-.92.63-1.85.9-2.8.27-.94.47-1.8.62-2.57.15-.77.25-1.45.31-2.06,0-.06-.02-.17-.03-.35-.01-.17,0-.29.08-.35.02,0,.03-.01.05-.02.1-.1.2-.14.3-.14.1,0,.23.02.38.06.31.08.51.17.6.29ZM108.29,35.82c.41.68.56,1.39.42,2.12-.12.73-.6,1.32-1.41,1.77-.51.28-1.11.51-1.81.7-.68.18-1.1.11-1.24-.19-.26-.54-.32-1.15-.19-1.83.13-.68.38-1.3.73-1.88.31-.44.51-.69.63-.76.68-.37,1.24-.59,1.7-.64.46-.05.85.18,1.16.69Z"/>
          <path class="cls-1" d="M145.84,28.51c.15.1.28.33.39.69.11.36.19.82.23,1.39.04.57.03,1.22-.03,1.95-.06.74-.19,1.52-.4,2.36-.11.47-.27,1.06-.49,1.77-.22.71-.53,1.5-.93,2.35-.4.85-.89,1.74-1.49,2.65-.6.92-1.32,1.83-2.19,2.72-1.01,1.04-2.02,1.79-3,2.26-.99.47-1.92.71-2.78.74-.86.03-1.64-.13-2.34-.46-.7-.33-1.27-.77-1.75-1.32-.57-.67-1.11-1.44-1.59-2.3-.49-.86-.93-1.69-1.32-2.48-.39-.79-.73-1.49-1-2.08-.28-.59-.48-.96-.61-1.11-.15-.17-.31-.39-.46-.65-.15-.26-.26-.53-.32-.83-.06-.29-.06-.59.01-.89.07-.3.25-.58.52-.85.33-.32.65-.56.95-.73.29-.16.57-.27.81-.33.25-.05.45-.07.63-.04.17.03.31.09.4.17.26.26.52.69.75,1.3.23.61.51,1.3.8,2.07.3.77.66,1.58,1.08,2.43.42.85.97,1.63,1.65,2.35.34.36.72.7,1.17,1.04.44.33.92.57,1.44.7.52.13,1.08.1,1.69-.08.61-.18,1.25-.62,1.91-1.32.56-.58,1.06-1.25,1.52-1.99.46-.74.86-1.5,1.2-2.27.34-.77.62-1.52.85-2.25.22-.73.39-1.37.52-1.94.12-.57.21-1.1.29-1.58.07-.48.15-.92.22-1.31.07-.39.14-.73.22-1.02.08-.29.18-.52.3-.7.26-.38.48-.57.67-.58.19,0,.35.04.49.13ZM124.29,23.19c.09.08.21.22.34.42.14.2.27.42.41.68.14.25.26.51.38.78.11.27.21.5.27.71.06.2.07.45.02.74-.06.29-.14.58-.26.87-.12.29-.26.57-.42.83-.16.26-.31.45-.44.59-.1.1-.19.16-.29.17-.1.01-.19,0-.29-.04-.1-.04-.19-.1-.29-.18-.09-.07-.19-.15-.28-.21-.16-.11-.32-.21-.48-.32-.1-.06-.19-.09-.29-.11-.1-.02-.2-.04-.31-.07-.11-.03-.23-.08-.36-.14-.13-.07-.28-.19-.44-.35-.14-.14-.24-.35-.29-.63-.06-.28-.07-.58-.03-.91.04-.33.13-.67.28-1.03.14-.35.36-.69.64-1,.07-.07.2-.17.41-.29.2-.12.41-.23.64-.33.22-.09.44-.16.65-.21.21-.04.36-.03.45.05Z"/>
        </g>
        <path class="cls-3" d="M85.13,18.11s1.19-5.96,8.34-5.96,9.69,5.96,9.69,5.96"/>
        <path class="cls-3" d="M46.75,18.06s1.19-5.96,8.34-5.96,9.69,5.96,9.69,5.96"/>
      </g>
    </g>
  </g>
</svg>