<?xml version="1.0" encoding="UTF-8"?>
<svg id="_レイヤー_2" data-name="レイヤー 2" xmlns="http://www.w3.org/2000/svg" viewBox="0 0 100.79 73">
  <defs>
    <style>
      .cls-1 {
        fill: none;
        stroke: #103099;
        stroke-linecap: round;
        stroke-linejoin: round;
        stroke-width: 1px;
      }
    </style>
  </defs>
  <g id="pc_top">
    <g id="_紙飛行機" data-name="紙飛行機">
      <g>
        <path class="cls-1" d="M21.49,36.52c5.6-2.45,5.43-2.83,11.02-5.28,5.6-2.45,5.8-1.99,11.39-4.44,5.6-2.45,5.18-3.4,10.78-5.85,5.6-2.45,5.78-2.03,11.38-4.48s5.65-2.32,11.25-4.77,5.6-2.45,11.2-4.9c5.6-2.45,5.84-1.91,11.44-4.36"/>
        <path class="cls-1" d="M.5,2.46c6.16-.03,6.16-1.1,12.32-1.13,6.16-.03,6.16-.65,12.32-.68,6.16-.03,6.17,1.1,12.33,1.07s6.16-.67,12.32-.71,6.16-.47,12.33-.51,6.17.44,12.33.41,6.17,1.06,12.34,1.03,6.17-.17,12.33-.2"/>
        <path class="cls-1" d="M3.56,72.5c4.83-3.56,4.57-3.92,9.41-7.48s4.88-3.51,9.71-7.07,4.63-3.85,9.46-7.41,4.95-3.41,9.78-6.97,5.14-3.14,9.98-6.7,4.14-4.5,8.98-8.06c4.84-3.56,5.17-3.11,10.01-6.67,4.83-3.56,5.02-3.31,9.86-6.87,4.84-3.57,4.44-4.11,9.27-7.68s5.04-3.29,9.88-6.86"/>
        <path class="cls-1" d="M21.23,36.09c-3.46-5.75-3.62-5.65-7.08-11.4s-3.4-5.79-6.86-11.55S4.19,7.17.72,1.42"/>
        <path class="cls-1" d="M3.43,72.17c3.01-6,2.72-6.14,5.73-12.15s3.19-5.91,6.2-11.92,3.09-5.97,6.09-11.97"/>
        <path class="cls-1" d="M56.05,39.87c4.44-3.84,4.38-3.91,8.81-7.75s4.63-3.62,9.07-7.46,4.1-4.23,8.54-8.07,4.97-3.23,9.41-7.07c4.44-3.84,3.97-4.39,8.41-8.23"/>
        <path class="cls-1" d="M56.09,39.93c-2.46-1.69-2.45-1.7-4.9-3.39"/>
      </g>
    </g>
  </g>
</svg>