<?xml version="1.0" encoding="UTF-8"?>
<svg id="_レイヤー_2" data-name="レイヤー 2" xmlns="http://www.w3.org/2000/svg" viewBox="0 0 210.61 121">
  <defs>
    <style>
      .cls-1 {
        fill: #00002d;
        font-family: TA-koigokoro-90ms-RKSJ-H, TA-koigokoro;
        font-size: 20.94px;
      }

      .cls-2 {
        stroke-linecap: round;
        stroke-linejoin: round;
      }

      .cls-2, .cls-3 {
        fill: none;
        stroke: #6eadea;
        stroke-width: 1px;
      }

      .cls-3 {
        stroke-miterlimit: 10;
      }
    </style>
  </defs>
  <g id="pc_top">
    <g>
      <g id="_紙飛行機" data-name="紙飛行機">
        <g>
          <path class="cls-3" d="M56.67,74.19c10.87-.13,10.86-1.15,21.73-1.28s10.88.28,21.75.15c10.87-.13,10.86-1.21,21.73-1.34s10.88.03,21.75-.1c10.87-.13,10.89,1.21,21.76,1.08s10.86-1.54,21.73-1.67,10.87-.26,21.75-.39"/>
          <path class="cls-2" d="M48.78.5c10.04,4.48,9.74,5.15,19.78,9.64s10.46,3.54,20.5,8.02,9.87,4.87,19.9,9.35c10.04,4.48,9.07,6.66,19.11,11.14s11.09,2.14,21.13,6.62,9.94,4.7,19.98,9.18,9.75,5.13,19.79,9.62,10.6,3.23,20.64,7.72"/>
          <path class="cls-2" d="M1.1,120.51c10.49-2.27,10.21-3.55,20.7-5.81,10.49-2.27,10.58-1.81,21.07-4.08s10.63-1.59,21.12-3.86,9.99-4.59,20.47-6.86,10.23-3.47,20.72-5.74,10.52-2.12,21.01-4.38,10.68-1.37,21.17-3.64c10.49-2.27,10.55-2,21.04-4.27,10.49-2.27,10.67-1.45,21.16-3.72s10.07-4.23,20.56-6.5"/>
          <path class="cls-2" d="M57.18,73.1c-1.38-11.95-1.54-11.94-2.92-23.89s-1.71-11.92-3.1-23.87-1.97-11.89-3.35-23.84"/>
          <path class="cls-2" d="M.5,118.5c9.32-7.6,9.55-7.32,18.88-14.92s9.54-7.34,18.86-14.94c9.32-7.6,9.16-7.8,18.48-15.4"/>
          <path class="cls-2" d="M110.52,105.59c9.85-3.37,9.95-3.08,19.81-6.45,9.85-3.37,9.36-4.8,19.22-8.17s9.76-3.63,19.62-7.01,10.34-1.96,20.19-5.34,9.46-4.53,19.31-7.91"/>
          <path class="cls-3" d="M110.3,105.14c-2.75-4.57-2.65-4.63-5.4-9.2"/>
        </g>
      </g>
      <text class="cls-1" transform="translate(70.57 63.84)"><tspan x="0" y="0">送　信</tspan></text>
    </g>
  </g>
</svg>