<?xml version="1.0" encoding="UTF-8"?>
<svg id="_レイヤー_2" data-name="レイヤー 2" xmlns="http://www.w3.org/2000/svg" viewBox="0 0 211.16 120.11">
  <defs>
    <style>
      .cls-1 {
        stroke-miterlimit: 10;
      }

      .cls-1, .cls-2 {
        fill: none;
        stroke: #6eadea;
      }

      .cls-2 {
        stroke-linecap: round;
        stroke-linejoin: round;
      }

      .cls-3 {
        fill: #00002d;
      }
    </style>
  </defs>
  <g id="pc_top">
    <g>
      <g id="_紙飛行機" data-name="紙飛行機">
        <g>
          <path class="cls-1" d="M56.43,71.91c10.92-.13,10.94,1.53,21.86,1.4,10.92-.13,10.9-2.41,21.82-2.54s10.94,1.65,21.87,1.52c10.92-.13,10.93.44,21.85.31,10.92-.13,10.91-.94,21.84-1.07,10.92-.13,10.92-.48,21.85-.61,10.92-.13,10.94,1.2,21.87,1.07"/>
          <path class="cls-2" d="M48.08.56c10.08,4.5,9.79,5.15,19.87,9.65,10.08,4.5,10.35,3.9,20.43,8.4,10.08,4.5,10.54,3.47,20.63,7.96s9.34,6.16,19.43,10.65q10.08,4.5,20.18,8.98c10.08,4.5,10.33,3.95,20.41,8.45,10.09,4.5,9.85,5.04,19.93,9.54,10.09,4.5,10,4.69,20.09,9.18"/>
          <path class="cls-2" d="M.56,119.61c10.54-2.27,10.56-2.16,21.1-4.44,10.53-2.27,9.79-5.74,20.32-8.01,10.53-2.27,10.61-1.91,21.15-4.19s11.11.39,21.64-1.89,10.31-3.33,20.84-5.61c10.54-2.27,10.66-1.71,21.19-3.99,10.54-2.27,10.1-4.32,20.63-6.59s10.42-2.82,20.96-5.1c10.54-2.27,11.18.7,21.72-1.58,10.54-2.27,10.02-4.7,20.55-6.97"/>
          <path class="cls-2" d="M56.41,72.44c-1.39-11.99-1.7-11.95-3.09-23.94-1.39-11.99-1.18-12.02-2.57-24.01-1.39-11.99-1.32-12-2.71-23.99"/>
          <path class="cls-2" d="M.5,118.5c9.36-7.63,9.03-8.04,18.39-15.66,9.36-7.63,9.78-7.12,19.14-14.75,9.36-7.63,8.9-8.19,18.27-15.82"/>
          <path class="cls-2" d="M110.54,104.95c9.9-3.38,9.94-3.27,19.83-6.66,9.9-3.38,9.59-4.3,19.48-7.68,9.9-3.38,9.86-3.49,19.76-6.87s10.25-2.36,20.15-5.74c9.9-3.39,9.74-3.84,19.64-7.23"/>
          <path class="cls-1" d="M110.42,104.46c-2.76-4.58-2.87-4.51-5.63-9.1"/>
        </g>
      </g>
      <g>
        <path class="cls-3" d="M72.09,51.67c-.1-.06-.1-.19,0-.38.1-.17.29-.34.55-.48.27-.15.48-.23.63-.25.15-.02.44-.15.92-.34.46-.21,1.01-.36,1.57-.46.55-.11.82-.02.76.21-.06.23-.42.42-1.11.55-1.03.34-1.99.76-2.96,1.24-.15,0-.25-.02-.36-.08ZM89.67,60.38c.15.13.21.23.21.34s-.15.25-.42.5-1.36.84-3.25,1.81c-1.91.96-3.93,1.05-6.07.25-.84-.53-2.18-.78-4.01-.78-.61.11-1.05.21-1.32.36-.27.15-.44.21-.5.21s-.19-.04-.34-.1-.13-.32.1-.76.63-1.32,1.24-2.69c.63-1.34.99-2.37,1.13-3.04-1.18.12-2.06.48-2.67,1.05-.61.59-.97.84-1.03.82s-.15-.08-.29-.19c-.15-.11-.15-.23,0-.38.15-.15.5-.44,1.11-.96.63-.5,1.34-.86,2.16-1.07.82-.19,1.26-.17,1.32.04.06.23.1.42.17.57.06.15-.04.59-.27,1.34-.27.76-.86,2.21-1.83,4.26,1.72-.34,3.23-.25,4.54.29s2.5.82,3.57.8,2.12-.34,3.17-.92c1.03-.59,1.99-1.22,2.96-1.85.06-.06.17-.02.31.1ZM81.31,48.56c.08.15.38.63.88,1.43l1.2-.46c.02-.21.06-.4.13-.55s.38-.61.97-1.41c.57-.8.92-1.26,1.07-1.39.15-.12.34-.08.63.13.29.21.27.46-.08.76-.36.31-.67.69-.97,1.11-.29.44-.48.78-.57,1.03.29-.1.59-.19.84-.23.23-.04.46-.06.73-.08.25-.02.42.13.46.4.06.25-.1.42-.5.46-.38.04-.76.1-1.09.21-.31.11-.82.25-1.47.46,0,.36-.25,1.45-.76,3.25,1.39-.65,2.6-1.09,3.61-1.41,1.01-.29,1.55-.36,1.62-.21.06.13.1.25.13.36,0,.11-.69.4-2.12.86-1.41.48-2.52.94-3.34,1.38-.02.23-.04.42-.1.57.42.88,1.01,1.64,1.78,2.29.78.67,1.39,1.05,1.87,1.16.44.1.9.15,1.36.13.48-.02.76.02.88.17.1.15-.13.29-.73.48-.61.19-1.53.02-2.77-.52-1.01-.61-1.87-1.43-2.6-2.46-.31,1.3-.59,2.27-.82,2.9-.21.65-.38.95-.48.97-.1.02-.19,0-.25-.02-.08-.02-.08-.34-.02-.95.06-.59.4-2.1.99-4.51-.69.17-1.32.36-1.91.59-.57.21-.99.29-1.24.25-.27-.04-.42-.17-.46-.44-.06-.27.02-.4.25-.38.23.02,1.36-.27,3.44-.92.29-1.13.48-2.18.59-3.15-1.53.5-2.48.82-2.79.9-.29.08-.52.02-.65-.19-.15-.21.17-.44.9-.74s1.28-.48,1.62-.59c-.04-.02-.1-.08-.17-.17s-.21-.27-.42-.55c-.23-.29-.57-.86-1.07-1.72s-.59-1.3-.25-1.3.69.44,1.07,1.34c.31.34.52.59.63.76Z"/>
        <path class="cls-3" d="M114.15,58.68c-.04-.1.29-1.26.99-3.4.67-2.16,1.7-4.18,3.04-6.07,1.36-1.89,2.08-2.9,2.18-3,.08-.11.23-.08.42.08.21.17.13.5-.25.99-.4.5-.9,1.24-1.57,2.23-1.72,2.62-3.07,5.48-4.07,8.61.25.08.34.19.27.36s-.25.34-.55.5c-.27-.08-.44-.19-.46-.29ZM118.42,51.08c.06-.04.19-.06.38-.06.17,0,.23.08.23.23,0,.13-.13,1.09-.4,2.88-.27,1.78-.31,3.57-.08,5.35s.4,2.86.48,3.17c.1.34.23.55.34.61s.13.15.1.23c-.04.06-.19.17-.44.27s-.44.11-.55,0-.36-1.26-.73-3.46c-.4-2.18-.23-5.14.44-8.84.08-.21.17-.34.23-.38ZM124.02,51.35c-1.64.73-2.67,1.2-3.09,1.43-.4.23-.67.29-.8.25-.15-.02-.23-.11-.27-.21-.02-.1-.02-.25.08-.42s.46-.36,1.09-.61,2.08-.9,4.35-1.97c-.23-1.45-.29-2.33-.27-2.67.02-.32.06-.57.08-.71.02-.15.08-.21.23-.15s.27.13.38.21.17.27.21.57c-.04.42.02,1.24.21,2.46,2.6-.9,4.03-1.45,4.22-1.6s.4-.23.59-.34.34-.04.48.17c.15.19.17.38.08.52-.1.15-.25.25-.44.32-3.13,1.11-5.5,2.04-7.14,2.75ZM124.59,64.26c-.55.11-.9-.11-1.03-.63-.15-.5-.19-1.41-.13-2.67-.31-.34-.42-.65-.27-.9.15-.23.38-.53.73-.88.34-.34,1.47-.82,3.4-1.45,1.93-.63,3.04-.84,3.34-.63.31.21.5.59.59,1.16.08.55.15,1.26.17,2.14.02.63-.15,1.2-.48,1.7-.38.52-.59.57-.69.23-3.19,1.18-5.08,1.83-5.63,1.93ZM123.31,57.04c-.06-.27.13-.46.61-.53.44-.08.84-.19,1.18-.34,2.37-.92,3.72-1.51,4.05-1.74.31-.23.55-.25.71-.06.17.19.19.38.08.52-.13.17-1.89.9-5.29,2.23-.86.23-1.3.19-1.34-.08ZM123.62,54.29c-.23-.15-.27-.32-.13-.48.15-.19.46-.42.94-.65.48-.21,1.45-.61,2.86-1.15,1.41-.57,2.18-.8,2.23-.76.06.02.13.08.19.19.06.1.04.23-.06.38-.13.15-.46.29-1.03.38-3.11,1.55-4.77,2.25-5,2.1ZM124.36,63.55c1.74-.57,2.96-.94,3.63-1.18s1.47-.55,2.35-.94c.23-.92.27-1.72.17-2.37-.13-.67-.34-1.05-.69-1.2-1.95.59-3.17.99-3.67,1.18-.5.17-1.09.53-1.81,1.03-.13,1.15-.1,2.33.02,3.49Z"/>
      </g>
    </g>
  </g>
</svg>