<?xml version="1.0" encoding="UTF-8"?>
<svg id="_レイヤー_2" data-name="レイヤー 2" xmlns="http://www.w3.org/2000/svg" viewBox="0 0 110.62 70.66">
  <defs>
    <style>
      .cls-1 {
        fill: #fff;
      }

      .cls-2 {
        fill: none;
        stroke: #fff;
        stroke-linecap: round;
        stroke-linejoin: round;
        stroke-width: .66px;
      }
    </style>
  </defs>
  <g id="pc_top">
    <g id="_紙飛行機" data-name="紙飛行機">
      <g>
        <g>
          <path class="cls-1" d="M25.62,38.57c5.98-1.22,5.97-1.27,11.96-2.49s6.06-.83,12.04-2.05,5.98-1.23,11.96-2.45,5.9-1.63,11.89-2.85,5.99-1.2,11.97-2.41,5.96-1.36,11.95-2.58,6.11-.62,12.1-1.84"/>
          <path class="cls-2" d="M25.62,38.57c5.98-1.22,5.97-1.27,11.96-2.49s6.06-.83,12.04-2.05,5.98-1.23,11.96-2.45,5.9-1.63,11.89-2.85,5.99-1.2,11.97-2.41,5.96-1.36,11.95-2.58,6.11-.62,12.1-1.84"/>
        </g>
        <g>
          <path class="cls-1" d="M12.79.33c6.02,1.26,5.8,2.34,11.82,3.6s6.17.57,12.19,1.83,6.12.81,12.14,2.06,5.81,2.28,11.84,3.53,6.04,1.2,12.07,2.46,6.08,1.01,12.1,2.27,6.07,1.05,12.1,2.31,5.89,1.94,11.92,3.2"/>
          <path class="cls-2" d="M12.79.33c6.02,1.26,5.8,2.34,11.82,3.6s6.17.57,12.19,1.83,6.12.81,12.14,2.06,5.81,2.28,11.84,3.53,6.04,1.2,12.07,2.46,6.08,1.01,12.1,2.27,6.07,1.05,12.1,2.31,5.89,1.94,11.92,3.2"/>
        </g>
        <g>
          <path class="cls-1" d="M.33,70.03c5.48-2.46,5.44-2.54,10.92-5s5.33-2.78,10.81-5.24,5.46-2.5,10.94-4.96,5.73-1.89,11.21-4.35,5.74-1.87,11.21-4.34,5.12-3.24,10.6-5.71,5.37-2.71,10.84-5.17,5.88-1.56,11.36-4.03,5.09-3.32,10.57-5.79,5.85-1.65,11.32-4.12"/>
          <path class="cls-2" d="M.33,70.03c5.48-2.46,5.44-2.54,10.92-5s5.33-2.78,10.81-5.24,5.46-2.5,10.94-4.96,5.73-1.89,11.21-4.35,5.74-1.87,11.21-4.34,5.12-3.24,10.6-5.71,5.37-2.71,10.84-5.17,5.88-1.56,11.36-4.03,5.09-3.32,10.57-5.79,5.85-1.65,11.32-4.12"/>
        </g>
        <g>
          <path class="cls-1" d="M25.57,38.92c-2.16-6.34-2.19-6.33-4.35-12.66s-2.02-6.39-4.19-12.73S14.88,7.18,12.72.84"/>
          <path class="cls-2" d="M25.57,38.92c-2.16-6.34-2.19-6.33-4.35-12.66s-2.02-6.39-4.19-12.73S14.88,7.18,12.72.84"/>
        </g>
        <g>
          <path class="cls-1" d="M.53,70.33c4.21-5.23,4.14-5.28,8.35-10.5s4.23-5.21,8.44-10.44,4.09-5.33,8.3-10.56"/>
          <path class="cls-2" d="M.53,70.33c4.21-5.23,4.14-5.28,8.35-10.5s4.23-5.21,8.44-10.44,4.09-5.33,8.3-10.56"/>
        </g>
        <g>
          <path class="cls-1" d="M58.92,50.07c5.15-2.81,5.12-2.86,10.27-5.68s5.26-2.61,10.41-5.43,5.14-2.83,10.28-5.65,4.88-3.3,10.03-6.12,5.24-2.65,10.39-5.47"/>
          <path class="cls-2" d="M58.92,50.07c5.15-2.81,5.12-2.86,10.27-5.68s5.26-2.61,10.41-5.43,5.14-2.83,10.28-5.65,4.88-3.3,10.03-6.12,5.24-2.65,10.39-5.47"/>
        </g>
        <g>
          <path class="cls-1" d="M58.84,49.96c-2.04-2.16-2.03-2.18-4.07-4.34"/>
          <path class="cls-2" d="M58.84,49.96c-2.04-2.16-2.03-2.18-4.07-4.34"/>
        </g>
      </g>
    </g>
  </g>
</svg>